<?xml version="1.0" standalone="no"?>
<!DOCTYPE svg PUBLIC "-//W3C//DTD SVG 1.1//EN" "http://www.w3.org/Graphics/SVG/1.1/DTD/svg11.dtd" >
<svg xmlns="http://www.w3.org/2000/svg" xmlns:xlink="http://www.w3.org/1999/xlink" version="1.1">
<metadata></metadata>
<defs>
<font id="sansitaregular" horiz-adv-x="1107" >
<font-face units-per-em="2048" ascent="1638" descent="-410" />
<missing-glyph horiz-adv-x="358" />
<glyph unicode="&#xfb01;" horiz-adv-x="1116" d="M10 952v92h146l6 111q9 169 125.5 244.5t310.5 75.5q70 0 133.5 -8.5t127.5 -29t102 -62t38 -99.5q0 -59 -49 -94t-114 -35q-63 0 -105 29q19 52 19 90q0 118 -162 118q-112 0 -160.5 -56t-48.5 -173v-111h594v-876q0 -100 63 -135q-16 -31 -53 -47.5t-78 -16.5 q-78 0 -117.5 45.5t-39.5 126.5v811h-367v-952l-225 -25v977h-146z" />
<glyph unicode="&#xfb02;" horiz-adv-x="1124" d="M10 952v92h146l6 111q20 320 436 320q143 0 240 -31l135 14v-1290q0 -100 63 -135q-16 -31 -53 -47.5t-78 -16.5q-78 0 -117.5 45.5t-39.5 126.5v1051q0 100 -34 146t-124 46q-67 0 -111 -18t-64.5 -53t-28 -71t-7.5 -87v-111h223v-92h-221v-952l-225 -25v977h-146z" />
<glyph horiz-adv-x="0" />
<glyph horiz-adv-x="682" />
<glyph unicode=" "  horiz-adv-x="358" />
<glyph unicode="&#x09;" horiz-adv-x="358" />
<glyph unicode="&#xa0;" horiz-adv-x="358" />
<glyph unicode="!" horiz-adv-x="501" d="M92 86q0 63 44 97t112 34t109.5 -33t41.5 -94q0 -63 -44 -97t-113 -34q-67 0 -108.5 33t-41.5 94zM133 1350q49 43 123 43q131 0 131 -138q0 -81 -12 -233l-49 -594q-24 -18 -70 -18q-57 0 -76 31t-22 100z" />
<glyph unicode="&#x22;" horiz-adv-x="786" d="M94 1442q46 12 88 12q90 0 126 -41.5t36 -136.5q0 -67 -26 -149t-56 -121h-139q0 277 -29 436zM442 1442q46 12 88 12q90 0 126 -41.5t36 -136.5q0 -67 -26 -149t-56 -121h-139q0 277 -29 436z" />
<glyph unicode="#" d="M-2 436q0 48 25.5 75.5t72.5 27.5h152v292h-232q-18 41 -18 72q0 48 25.5 75.5t72.5 27.5h152v245q0 53 30 80t82 27q44 0 78 -21v-331h234v245q0 53 30 80t82 27q44 0 78 -21v-331h232q18 -41 18 -72q0 -48 -25.5 -75.5t-72.5 -27.5h-152v-292h232q18 -41 18 -72 q0 -48 -25.5 -75t-72.5 -27h-152v-259q0 -53 -29.5 -79.5t-82.5 -26.5q-45 0 -78 20v345h-234v-259q0 -53 -29.5 -79.5t-82.5 -26.5q-45 0 -78 20v345h-232q-18 41 -18 71zM438 539h234v292h-234v-292z" />
<glyph unicode="$" d="M123 254q0 73 43.5 119.5t116.5 46.5q70 0 106 -33q-16 -46 -16 -102q0 -195 184 -195q90 0 147.5 50t57.5 136q0 61 -32.5 112.5t-84.5 90t-115 76.5t-126 80.5t-115 91.5t-84.5 121t-32.5 158q0 66 20 120.5t51.5 91t75 64t85.5 42t88 22.5v81q0 119 94 119 q46 0 80 -18v-178q58 -7 107.5 -23.5t97 -47.5t75 -85.5t27.5 -126.5q0 -73 -43.5 -119.5t-114.5 -46.5q-70 0 -106 33q14 51 14 102q0 181 -160 181q-77 0 -121.5 -38.5t-44.5 -111.5q0 -66 32.5 -122t84.5 -96.5t115 -79t126 -80t115 -88.5t84.5 -114.5t32.5 -148.5 q0 -75 -22.5 -136t-57.5 -101t-84 -69.5t-96 -45t-100 -23.5v-86q0 -117 -95 -117q-48 0 -79 19v180q-45 5 -87 16t-88 33.5t-79 54t-54.5 81t-21.5 110.5z" />
<glyph unicode="%" horiz-adv-x="1890" d="M90 977q0 403 336 403q334 0 334 -391q0 -416 -334 -416q-336 0 -336 404zM289 981q0 -38 0.5 -60.5t3 -58.5t7.5 -58.5t15.5 -49.5t24.5 -42t36 -25.5t50 -10.5q27 0 48 10.5t34.5 26t23 43t14.5 50t7.5 58.5t3 58.5t0.5 58.5q0 38 -1.5 66.5t-5 66.5t-12.5 65t-23 52 t-36.5 38t-52.5 13q-45 0 -74.5 -27.5t-42 -77.5t-16.5 -93.5t-4 -102.5zM442 14l779 1311q23 42 45.5 62t56.5 20q29 0 57.5 -21.5t49.5 -52.5l-779 -1310q-23 -42 -45.5 -62t-56.5 -20q-29 0 -57.5 21t-49.5 52zM1133 365q0 403 335 403q334 0 334 -391q0 -416 -334 -416 q-335 0 -335 404zM1331 369q0 -38 0.5 -60.5t3 -58.5t7.5 -58.5t15.5 -49.5t24.5 -42.5t36 -26t50 -10.5q27 0 48 11t34.5 26.5t23 42.5t14.5 50t7.5 59t3 58t0.5 59q0 38 -1.5 66.5t-5 66.5t-12.5 65t-23 52t-36.5 38t-52.5 13q-45 0 -74.5 -27.5t-42 -77.5t-16.5 -93.5 t-4 -102.5z" />
<glyph unicode="&#x26;" horiz-adv-x="1394" d="M82 377q0 238 237 342q-94 183 -94 325q0 115 56.5 195t150 117t217.5 37q377 0 377 -258q0 -73 -44.5 -119.5t-115.5 -46.5t-106 32q16 46 16 103q0 145 -145 145q-83 0 -128.5 -49t-45.5 -147q0 -113 71 -255.5t176 -269t226 -227.5q28 82 28 203q0 135 -88 229 q60 33 129 33q109 0 154 -63t45 -177q0 -173 -121 -325q98 -49 176 -49q67 0 115 22q27 -30 27 -78q0 -70 -51 -103.5t-132 -33.5q-119 0 -288 96q-154 -100 -332 -100q-147 0 -260 44.5t-181.5 141.5t-68.5 236zM336 414q0 -143 83.5 -226.5t227.5 -83.5q93 0 156 35 q-111 89 -219.5 207t-190.5 244q-57 -54 -57 -176z" />
<glyph unicode="'" horiz-adv-x="438" d="M94 1442q46 12 88 12q90 0 126 -41.5t36 -136.5q0 -67 -26 -149t-56 -121h-139q0 277 -29 436z" />
<glyph unicode="(" horiz-adv-x="768" d="M223 614q0 197 47 386t123.5 328.5t179.5 224.5t209 85q72 0 97 -43q-198 -144 -301 -400.5t-103 -580.5t103 -580.5t301 -400.5q-25 -43 -97 -43q-106 0 -209 85t-179.5 224.5t-123.5 328.5t-47 386z" />
<glyph unicode=")" horiz-adv-x="765" d="M-111 -365q198 144 301 400t103 579q0 324 -103 580.5t-301 400.5q37 43 111 43q150 0 276.5 -143.5t197.5 -378.5t71 -502q0 -266 -71 -500.5t-197.5 -378t-276.5 -143.5q-74 0 -111 43z" />
<glyph unicode="*" horiz-adv-x="874" d="M45 1034q-14 53 0 92q34 105 215 45q56 -18 113 -49l-37 277q42 28 88 28q108 0 108 -190q0 -50 -10 -115l246 117q38 -26 55 -74q34 -104 -147 -164q-52 -14 -94 -22l186 -197q-15 -46 -55 -75q-90 -64 -199 92q-32 40 -76 131l-147 -273q-48 0 -88 29q-90 63 24 217 q27 39 72 84z" />
<glyph unicode="+" d="M129 477q0 48 25.5 75.5t72.5 27.5h219v270q0 53 30 79.5t83 26.5q45 0 78 -20v-356h319q19 -44 19 -72q0 -48 -25.5 -75t-72.5 -27h-240v-287q0 -53 -30 -80t-83 -27q-44 0 -78 21v373h-299q-18 41 -18 71z" />
<glyph unicode="," horiz-adv-x="481" d="M86 -233q76 113 76 249q0 84 -43 158q49 27 114 27q82 0 123 -46t41 -130q0 -102 -69 -187.5t-164 -85.5q-40 0 -78 15z" />
<glyph unicode="-" horiz-adv-x="841" d="M98 475q0 50 30 73.5t87 26.5l506 17q22 -36 22 -82q0 -50 -30 -73.5t-88 -26.5l-504 -17q-23 33 -23 82z" />
<glyph unicode="." horiz-adv-x="493" d="M92 86q0 63 44 97t112 34t109.5 -33t41.5 -94q0 -63 -44 -97t-113 -34q-67 0 -108.5 33t-41.5 94z" />
<glyph unicode="/" horiz-adv-x="671" d="M74 -317q0 21 6 63l317 1880q24 8 76 8q125 0 125 -92q0 -21 -6 -63l-318 -1880q-27 -9 -75 -9q-125 0 -125 93z" />
<glyph unicode="0" d="M76 670q0 116 14 217t48 196t87 162t137 107.5t191 40.5t190.5 -38t137 -101.5t87.5 -154.5t48 -190t14 -215q0 -117 -14 -219.5t-48 -199.5t-87 -166.5t-137 -111.5t-191 -42t-191 39.5t-137 105.5t-87 159.5t-48 194t-14 216.5zM334 680q0 -69 1.5 -123t7 -117t15 -110 t26 -92.5t39 -74.5t55.5 -47t75 -18t75 18t55.5 47t39 74.5t26 92.5t15 110t7 117t1.5 123q0 90 -3.5 160t-17 151t-36 134t-64 88.5t-98.5 35.5q-41 0 -74.5 -18.5t-56 -48.5t-39 -76t-26 -92.5t-15 -107.5t-7 -112t-1.5 -114z" />
<glyph unicode="1" d="M72 1069q226 88 606 315l65 -32v-1200h279v-152h-887v152h369v938q-160 -96 -221 -126t-101 -30q-110 0 -110 135z" />
<glyph unicode="2" d="M57 150q215 168 430 397q53 61 87.5 105t71 102.5t54 119t17.5 123.5q0 98 -68.5 152.5t-173.5 54.5q-230 0 -325 -264q-41 19 -57 56t-23 106q10 92 76.5 160t158 99.5t191.5 31.5q221 0 350 -101t129 -293q0 -166 -113 -322t-422 -417q-23 -17 -73 -67l637 2l-15 -195 h-917z" />
<glyph unicode="3" d="M59 225q0 83 52 107q94 -189 346 -189q145 0 222 61.5t77 184.5q0 114 -71 172t-196 64q-64 3 -135 -7v130q72 2 132 18t108.5 46.5t76 81.5t27.5 118q0 94 -68.5 142t-193.5 48q-105 0 -176 -52t-102 -151q-80 24 -80 121q0 67 36 120.5t94.5 85.5t127.5 48.5t141 16.5 q102 0 185.5 -19.5t146.5 -59t98 -103.5t35 -148q0 -113 -63 -203.5t-170 -138.5q139 -27 222 -113t83 -217q0 -197 -153 -315.5t-402 -118.5q-78 0 -147 14.5t-127 45t-92 84.5t-34 126z" />
<glyph unicode="4" d="M20 381q0 45 46 115l587 856h240v-906h182l-14 -151h-168v-295h-240v295h-557q-36 0 -56 24t-20 62zM227 446h426v619z" />
<glyph unicode="5" d="M55 225q0 83 51 107q97 -189 365 -189q129 0 200.5 70.5t71.5 196.5q0 133 -97 194.5t-265 61.5q-104 0 -260 -29l53 715h727l14 -207h-575l-25 -330q92 10 187 10q499 0 499 -415q0 -199 -148.5 -327t-373.5 -128q-119 0 -212 27t-152.5 89.5t-59.5 153.5z" />
<glyph unicode="6" d="M76 629q0 118 22.5 228.5t70 208.5t115 170.5t163.5 114.5t210 42q68 0 130 -18.5t107.5 -61.5t45.5 -103q0 -53 -53 -88q-80 84 -215 84q-87 0 -152.5 -35t-105 -98.5t-60 -142t-24.5 -174.5q34 79 118 121.5t187 42.5q123 0 210 -63t128 -165t41 -231q0 -144 -55 -258 t-161 -181t-245 -67q-477 0 -477 674zM348 446q2 -64 13 -121t33.5 -110.5t63 -85t95.5 -31.5q56 0 97 31.5t63.5 84.5t32.5 111t10 121q0 56 -12 110.5t-35 103t-63.5 78.5t-92.5 30q-53 0 -92.5 -27t-62 -75t-34.5 -101.5t-16 -118.5z" />
<glyph unicode="7" d="M74 1157l14 195h967l14 -150l-565 -1247l-271 45l601 1159z" />
<glyph unicode="8" d="M76 332q0 117 80 214.5t204 155.5q-52 38 -89.5 71t-74.5 77t-56 94.5t-19 106.5q0 85 34.5 151.5t94.5 107.5t137.5 62t167.5 21q88 0 162.5 -18.5t133.5 -56t92.5 -101t33.5 -146.5q0 -201 -258 -340q52 -30 93 -58t84 -66.5t71.5 -78t46.5 -90t18 -104.5 q0 -99 -36 -173t-102 -118.5t-151 -66t-190 -21.5q-101 0 -185.5 22.5t-150.5 67t-103.5 118.5t-37.5 169zM336 332q0 -109 56.5 -171.5t162.5 -62.5q102 0 155.5 55t53.5 158q0 39 -17.5 76t-39.5 64t-67.5 62t-75 55t-89.5 57q-64 -57 -101.5 -134t-37.5 -159zM389 1071 q0 -76 54.5 -136.5t158.5 -127.5q63 47 97 115.5t34 148.5q0 79 -49.5 128.5t-128.5 49.5q-78 0 -122 -48.5t-44 -129.5z" />
<glyph unicode="9" d="M76 887q0 220 125.5 363t337.5 143q475 0 475 -674q0 -118 -22.5 -228.5t-70 -208t-115 -170.5t-163.5 -115t-209 -42q-68 0 -130.5 18t-108 61t-45.5 103q0 53 53 88q80 -84 215 -84q89 0 155 35t105 99t58.5 142t23.5 175q-39 -79 -121 -121.5t-184 -42.5 q-181 0 -280 130t-99 329zM334 901q0 -57 10.5 -110.5t33 -102.5t64 -78.5t97.5 -29.5q58 0 99 27t62.5 74.5t31 101t9.5 118.5q0 63 -10 121t-32 111t-63 84.5t-97 31.5t-97.5 -31.5t-64 -84.5t-33 -111t-10.5 -121z" />
<glyph unicode=":" horiz-adv-x="514" d="M104 86q0 63 44 97t112 34t110 -33t42 -94q0 -63 -44.5 -97t-113.5 -34q-67 0 -108.5 33t-41.5 94zM104 952q0 63 44 97t112 34t110 -33t42 -94q0 -63 -44.5 -97t-113.5 -34q-67 0 -108.5 33t-41.5 94z" />
<glyph unicode=";" horiz-adv-x="526" d="M111 -233q75 112 75 249q0 84 -43 158q50 27 115 27q82 0 123 -46t41 -130q0 -102 -69.5 -187.5t-164.5 -85.5q-40 0 -77 15zM117 952q0 63 43.5 97t111.5 34t110 -33t42 -94q0 -63 -44.5 -97t-113.5 -34q-67 0 -108 33t-41 94z" />
<glyph unicode="&#x3c;" d="M176 563l488 371q26 19 38 27t34.5 17t43.5 9q52 0 82.5 -29t30.5 -79l-416 -316h-2l356 -264q62 -51 62 -115q0 -49 -34.5 -73.5t-90.5 -24.5z" />
<glyph unicode="=" d="M129 283q0 48 25.5 75t72.5 27h729q19 -44 19 -72q0 -48 -25.5 -75t-72.5 -27h-730q-18 41 -18 72zM129 612q0 48 25.5 75.5t72.5 27.5h729q19 -44 19 -72q0 -48 -25.5 -75t-72.5 -27h-730q-18 41 -18 71z" />
<glyph unicode="&#x3e;" d="M215 195l416 315l-355 264q-61 51 -61 115q0 49 34.5 73.5t88.5 24.5l594 -477l-488 -371q-1 -1 -11 -8t-12 -8t-11 -7t-11.5 -7.5t-10.5 -6t-12 -6t-11 -4t-12.5 -3.5t-12 -2t-12.5 -1q-51 0 -82 29t-31 80z" />
<glyph unicode="?" horiz-adv-x="847" d="M4 1159q0 47 18 84.5t50.5 62t72 42.5t87 27.5t90.5 13.5t88 4q85 0 154.5 -15t126.5 -47.5t88.5 -89.5t31.5 -135q0 -65 -22 -125t-58 -107.5t-78.5 -92.5t-85.5 -86.5t-79 -81.5t-58 -86t-22 -93q-18 -18 -76 -18q-50 0 -73 24t-23 74q0 46 34 100.5t82 109t96.5 112.5 t82.5 129t34 141q0 74 -40.5 119t-121.5 45q-70 0 -113.5 -35.5t-43.5 -106.5q0 -37 18 -100q-32 -22 -90 -22q-79 0 -124.5 39t-45.5 114zM176 86q0 63 44 97t112 34t109.5 -33t41.5 -94q0 -63 -44 -97t-113 -34q-67 0 -108.5 33t-41.5 94z" />
<glyph unicode="@" horiz-adv-x="1699" d="M90 508q0 212 91.5 375t264.5 255.5t404 92.5q131 0 245 -25.5t209 -77.5t163 -128t105.5 -181.5t37.5 -232.5q0 -202 -107.5 -331.5t-296.5 -129.5q-70 0 -129.5 23.5t-91.5 74.5q-54 -98 -205 -98q-104 0 -172.5 60t-68.5 159q0 238 411 238v112q0 72 -18 108t-74 36 q-96 0 -96 -97q0 -35 12 -69q-23 -17 -74 -17q-56 0 -91.5 28t-35.5 79q0 80 88.5 125t212.5 45q146 0 205.5 -63t59.5 -212v-348q0 -44 19 -66t69 -22q192 0 192 314q0 278 -145.5 424.5t-423.5 146.5q-264 0 -415.5 -163.5t-151.5 -434.5q0 -277 148 -425.5t425 -148.5 q110 0 195.5 17t140.5 69q35 -21 35 -69q0 -41 -32.5 -71.5t-87.5 -47.5t-117.5 -25t-131.5 -8q-226 0 -398.5 82t-271 244t-98.5 383zM737 350q0 -48 27.5 -79t73.5 -31q56 0 84 41.5t28 105.5v100q-213 0 -213 -137z" />
<glyph unicode="A" horiz-adv-x="1030" d="M0 0l375 1352h305l350 -1352h-242l-81 344h-402l-80 -344h-225zM342 496h330l-166 702z" />
<glyph unicode="B" horiz-adv-x="1105" d="M123 10v1333q257 17 385 17q100 0 176.5 -15t139 -50t95.5 -99t33 -156q0 -87 -50.5 -163.5t-131.5 -120.5q136 -27 208.5 -123t72.5 -238q0 -83 -30 -152.5t-82 -117t-122 -81t-150 -49t-167 -15.5q-172 0 -377 30zM362 135q74 -12 138 -12q143 0 220 65t77 201 q0 80 -22 132.5t-68.5 80.5t-105.5 38.5t-146 10.5q-55 0 -93 -6v-510zM362 797q47 -6 105 -6q121 0 180.5 55t59.5 174q0 197 -213 197q-57 0 -132 -11v-409z" />
<glyph unicode="C" horiz-adv-x="1048" d="M70 670q0 123 16.5 228t56 197.5t99.5 157.5t151.5 102.5t208.5 37.5q86 0 155.5 -16t124.5 -50t85 -93.5t30 -139.5q0 -73 -43 -119.5t-114 -46.5t-107 33q17 49 17 102q0 186 -166 186q-49 0 -88.5 -20t-65.5 -51t-45.5 -79t-30 -95t-17 -108.5t-8 -109t-1.5 -106.5 q0 -61 2 -109.5t9 -106.5t18.5 -101.5t32.5 -87t49 -71t70 -44.5t95 -17q107 0 182.5 59.5t108.5 164.5q80 -24 80 -121q0 -92 -58.5 -160t-145.5 -99.5t-187 -31.5q-514 0 -514 715z" />
<glyph unicode="D" horiz-adv-x="1155" d="M123 10v1333q257 17 426 17q536 0 536 -651q0 -729 -585 -729q-172 0 -377 30zM362 135q74 -12 138 -12t114 15.5t85 41t60.5 67t40 85.5t23 105t11 115.5t2.5 127.5q0 85 -6.5 155.5t-26 144t-51.5 123.5t-87.5 82t-129.5 32q-69 0 -173 -11v-1071z" />
<glyph unicode="E" horiz-adv-x="897" d="M123 0v1352h686v-152h-447v-430h386v-152h-386v-466h476l-15 -152h-700z" />
<glyph unicode="F" horiz-adv-x="854" d="M123 0v1352h686v-152h-447v-459h386v-151h-386v-590h-239z" />
<glyph unicode="G" horiz-adv-x="1118" d="M70 670q0 160 29.5 287t93 227t173 154.5t259.5 54.5q86 0 157 -16t128.5 -50t89.5 -93.5t32 -139.5q0 -73 -43.5 -119.5t-114.5 -46.5q-70 0 -106 33q16 46 16 102q0 89 -45.5 137.5t-132.5 48.5q-59 0 -105.5 -24t-76 -69t-49.5 -97.5t-30 -121.5t-13.5 -128t-3.5 -129 q0 -62 2.5 -113t10 -111t19.5 -107t34 -92.5t52 -75t73 -48t97 -18.5q97 0 179 26l-9 480l222 28v-610q-74 -39 -188.5 -61.5t-209.5 -22.5q-121 0 -214 35t-154 97t-100 153t-55.5 196t-16.5 234z" />
<glyph unicode="H" horiz-adv-x="1183" d="M123 0v1352h239v-592h459v592h240v-1352h-240v608h-459v-608h-239z" />
<glyph unicode="I" horiz-adv-x="485" d="M123 0v1352h239v-1352h-239z" />
<glyph unicode="J" horiz-adv-x="485" d="M-78 -231q62 0 104 29t62 83t27.5 110t7.5 130v1231h239v-1157q0 -83 -5.5 -150.5t-24 -140t-49 -121t-84 -80t-125.5 -31.5q-60 0 -106 24.5t-46 72.5z" />
<glyph unicode="K" horiz-adv-x="1013" d="M123 0v1352h239v-1352h-239zM406 684l374 668h248l-393 -629l422 -723h-262z" />
<glyph unicode="L" horiz-adv-x="819" d="M123 0v1352h239v-1200h447l-14 -152h-672z" />
<glyph unicode="M" horiz-adv-x="1492" d="M123 0v1352h360l273 -973l272 973h342v-1352h-240v1128l-327 -1128h-160l-328 1133v-1133h-192z" />
<glyph unicode="N" horiz-adv-x="1163" d="M123 0v1352h182l543 -926v926h192v-1352h-180l-545 926v-926h-192z" />
<glyph unicode="O" horiz-adv-x="1189" d="M70 670q0 123 16.5 227.5t55 197.5t97.5 158t150 102.5t207 37.5q524 0 524 -699q0 -739 -524 -739q-118 0 -209 35.5t-150.5 98t-97.5 154t-53.5 196t-15.5 231.5zM328 680q0 -63 1.5 -112t8 -112t17 -110.5t30.5 -96.5t47.5 -80t68.5 -51t93 -20t93.5 20t69 51t47.5 80 t31 96.5t17.5 111t8 112t1.5 111.5q0 70 -3.5 127.5t-12 127t-27.5 122t-47.5 98t-74 70t-103.5 24.5q-50 0 -90.5 -19.5t-67.5 -50.5t-47.5 -78t-31.5 -95t-18 -108t-9 -109.5t-2 -108.5z" />
<glyph unicode="P" horiz-adv-x="1013" d="M123 0v1343q257 17 385 17q113 0 199 -20.5t152 -64.5t100 -120.5t34 -183.5q0 -178 -104.5 -288t-280.5 -110q-67 0 -115.5 22.5t-48.5 72.5q155 0 229.5 71t74.5 224q0 129 -62.5 191.5t-191.5 62.5q-57 0 -132 -11v-1206h-239z" />
<glyph unicode="Q" horiz-adv-x="1189" d="M70 670q0 123 16.5 227.5t55 197.5t97.5 158t150 102.5t207 37.5q524 0 524 -699q0 -739 -524 -739q204 -47 346 -47q108 0 162 45q47 -64 47 -119q0 -66 -44 -96.5t-118 -30.5q-65 0 -143.5 19t-139 41.5t-132.5 41.5t-125 19q-75 0 -113 -16q-29 29 -29 71q0 90 131 90 q-103 26 -176 88.5t-114 156.5t-59.5 204.5t-18.5 247.5zM328 680q0 -63 1.5 -112t8 -112t17 -110.5t30.5 -96.5t47.5 -80t68.5 -51t93 -20t93.5 20t69 51t47.5 80t31 96.5t17.5 111t8 112t1.5 111.5q0 70 -3.5 127.5t-12 127t-27.5 122t-47.5 98t-74 70t-103.5 24.5 q-50 0 -90.5 -19.5t-67.5 -50.5t-47.5 -78t-31.5 -95t-18 -108t-9 -109.5t-2 -108.5z" />
<glyph unicode="R" horiz-adv-x="1087" d="M123 0v1343q257 17 385 17q485 0 485 -379q0 -139 -70 -238t-192 -133l354 -610h-262l-364 647q-13 23 -13 41q155 0 228.5 68.5t73.5 216.5q0 123 -62.5 183.5t-191.5 60.5q-57 0 -132 -11v-1206h-239z" />
<glyph unicode="S" horiz-adv-x="966" d="M41 254q0 73 43.5 119.5t116.5 46.5q70 0 106 -33q-16 -46 -16 -102q0 -195 184 -195q90 0 147.5 50t57.5 136q0 62 -32.5 117.5t-84.5 99t-115 86.5t-126 90t-115 99t-84.5 124t-32.5 155q0 163 116 254.5t294 91.5q66 0 122.5 -9t107 -30t85.5 -53.5t55.5 -81.5 t20.5 -111q0 -73 -43.5 -119.5t-114.5 -46.5q-70 0 -106 33q14 51 14 102q0 180 -160 180q-77 0 -121.5 -38t-44.5 -111q0 -62 32.5 -117.5t84.5 -99t115 -86.5t126 -90t115 -98.5t84.5 -123.5t32.5 -155q0 -183 -125 -283t-323 -100q-86 0 -158 16.5t-131.5 50.5t-93 93.5 t-33.5 138.5z" />
<glyph unicode="T" horiz-adv-x="821" d="M-29 1200v152h889l-14 -152h-316v-1200h-239v1200h-320z" />
<glyph unicode="U" horiz-adv-x="1120" d="M113 494v858h239v-836q0 -55 1 -91.5t6 -84.5t14 -79.5t26 -65t40.5 -53t58.5 -32t80 -12.5t80 14t58.5 35t39.5 57.5t25 69t13.5 83.5t5.5 88t1 94v813h207v-791q0 -122 -10.5 -210t-39 -167t-77.5 -126.5t-128.5 -75t-189.5 -27.5q-133 0 -221 33t-138.5 103.5 t-70.5 166t-20 236.5z" />
<glyph unicode="V" horiz-adv-x="980" d="M-10 1352h241l269 -1198l266 1198h225l-360 -1352h-307z" />
<glyph unicode="W" horiz-adv-x="1628" d="M-10 1352h241l240 -1198l238 1198h227l240 -1198l237 1198h225l-331 -1352h-308l-198 971l-197 -971h-309z" />
<glyph unicode="X" horiz-adv-x="1056" d="M2 0l408 690l-379 662h262l260 -471l242 471h247l-387 -656l400 -696h-262l-283 508l-262 -508h-246z" />
<glyph unicode="Y" horiz-adv-x="1032" d="M2 1352h262l266 -555l252 555h246l-393 -727v-625h-240v600z" />
<glyph unicode="Z" horiz-adv-x="860" d="M8 150l567 1050h-530l14 152h760l15 -150l-570 -1050h588l-14 -152h-815z" />
<glyph unicode="[" horiz-adv-x="616" d="M164 -389v2007h522q12 -24 12 -62q0 -73 -90 -73h-205v-1737h205q90 0 90 -74q0 -37 -12 -61h-522z" />
<glyph unicode="\" horiz-adv-x="671" d="M74 1542q0 92 125 92q51 0 75 -8l318 -1880q6 -42 6 -63q0 -93 -125 -93q-49 0 -76 9l-317 1880q-6 42 -6 63z" />
<glyph unicode="]" horiz-adv-x="616" d="M-80 -328q0 74 90 74h205v1737h-205q-90 0 -90 73q0 38 12 62h523v-2007h-523q-12 24 -12 61z" />
<glyph unicode="^" horiz-adv-x="978" d="M14 705q134 76 234 249.5t158 397.5h208q54 -238 139 -394.5t212 -252.5q-32 -101 -127 -101q-101 0 -194 120.5t-163 375.5q-95 -263 -177 -379.5t-165 -116.5q-93 0 -125 101z" />
<glyph unicode="_" horiz-adv-x="1040" d="M14 -193q0 99 121 99h875q16 -31 16 -82q0 -98 -119 -98h-874q-19 31 -19 81z" />
<glyph unicode="`" horiz-adv-x="489" d="M20 1438q0 41 27.5 73t69.5 43l352 -311l-51 -72l-225 101q-34 15 -59 29t-54 35t-44.5 47t-15.5 55z" />
<glyph unicode="a" horiz-adv-x="1024" d="M76 264q0 332 592 332v178q0 102 -30.5 152.5t-115.5 50.5q-73 0 -119.5 -38t-46.5 -105q0 -40 17 -93q-27 -22 -84 -22q-74 0 -117 36.5t-43 106.5q0 98 111 160.5t297 62.5q199 0 277.5 -89t78.5 -296v-532q0 -100 63 -135q-34 -64 -120 -64q-59 0 -98 33.5t-48 91.5 q-75 -139 -282 -139q-142 0 -237 86t-95 223zM322 272q0 -81 44.5 -130.5t122.5 -49.5q90 0 135.5 68.5t45.5 171.5v162q-348 0 -348 -222z" />
<glyph unicode="b" horiz-adv-x="1073" d="M143 51v1383l226 24v-231q0 -217 -21 -328q38 86 116.5 136t172.5 50q82 0 146.5 -30.5t106 -81.5t68.5 -122.5t38.5 -148.5t11.5 -165q0 -126 -26 -229t-80 -183.5t-143.5 -125t-209.5 -44.5q-101 0 -212 25.5t-194 70.5zM369 139q89 -61 192 -61q45 0 79.5 19.5 t55.5 56t35 77t20.5 96.5t8.5 99.5t2 99.5q0 50 -2.5 91t-9 90t-20 86t-33.5 69t-52.5 49t-73.5 17q-43 0 -77 -16.5t-55.5 -47.5t-36 -67t-21.5 -84t-9.5 -89.5t-2.5 -91.5v-393z" />
<glyph unicode="c" horiz-adv-x="913" d="M66 496q0 127 28 232.5t84 186t148.5 125.5t214.5 45q138 0 227.5 -57.5t89.5 -175.5q0 -70 -43 -106.5t-117 -36.5q-56 0 -84 22q17 53 17 92q0 142 -123 142q-205 0 -205 -447q0 -66 4.5 -118.5t18.5 -108.5t37.5 -93t65.5 -61t99 -24q91 0 155 48.5t87 135.5 q66 -29 66 -96q0 -74 -50 -132t-124 -86t-154 -28q-114 0 -200.5 40.5t-138.5 114t-77.5 170.5t-25.5 216z" />
<glyph unicode="d" horiz-adv-x="1079" d="M66 524q0 125 26 225.5t79.5 176.5t143 117.5t209.5 41.5q99 0 178 -26v375l226 24v-1290q0 -100 63 -135q-34 -64 -121 -64q-59 0 -98.5 33.5t-46.5 91.5q-34 -67 -106.5 -103t-155.5 -36q-87 0 -156 31t-113.5 83t-73.5 126t-41.5 155t-12.5 174zM311 535 q0 -80 8 -148.5t29 -140t66 -113t110 -41.5q89 0 133.5 68.5t44.5 171.5v567q-94 64 -188 64q-45 0 -80 -18t-56.5 -52t-35.5 -72.5t-20.5 -92t-8.5 -96t-2 -97.5z" />
<glyph unicode="e" horiz-adv-x="937" d="M66 496q0 127 28 232.5t84 186t148.5 125.5t214.5 45q152 0 244 -78.5t92 -222.5q0 -92 -35.5 -156.5t-101 -99.5t-144 -50t-180.5 -15q-59 0 -113 4q2 -59 8.5 -106.5t22 -95.5t39.5 -80t63.5 -52t91.5 -20q90 0 159 46t108 130q47 -21 47 -88q0 -74 -51.5 -132 t-126.5 -86t-156 -28q-114 0 -200.5 40.5t-138.5 114t-77.5 170.5t-25.5 216zM303 571q50 -6 92 -6q258 0 258 207q0 84 -36.5 140.5t-108.5 56.5q-58 0 -100 -36t-63 -98.5t-30.5 -125.5t-11.5 -138z" />
<glyph unicode="f" horiz-adv-x="641" d="M10 952v92h146l6 111q17 320 364 320q57 0 109 -8t100.5 -26.5t77.5 -54.5t29 -86q0 -70 -43 -106.5t-117 -36.5q-53 0 -82 23q16 50 16 92q0 112 -102 112q-43 0 -71 -18t-41.5 -53t-18 -71t-4.5 -87v-111h223v-92h-221v-952l-225 -25v977h-146z" />
<glyph unicode="g" horiz-adv-x="1062" d="M74 596q0 231 112.5 360t333.5 129q107 0 207 -38l201 22v-862q0 -116 -10.5 -204t-40 -168.5t-77.5 -132.5t-126.5 -82t-184.5 -30q-69 0 -129.5 13t-112 39.5t-82 73t-30.5 108.5q0 70 43 106.5t117 36.5q56 0 84 -22q-17 -53 -17 -92q0 -142 144 -142q42 0 75 15 t54.5 37t36.5 61.5t22.5 71.5t11.5 85.5t4.5 86.5t0.5 90v55q-39 -57 -106.5 -86t-143.5 -29q-103 0 -179.5 37.5t-121 106t-65.5 156.5t-21 198zM315 606q0 -60 4 -108t17 -99t35 -85t60.5 -56t90.5 -22q90 0 135 67.5t45 171.5v422q-96 66 -190 66q-197 0 -197 -357z" />
<glyph unicode="h" horiz-adv-x="1089" d="M143 0v1434l226 24v-231q0 -217 -21 -328q42 92 120 139t183 47q173 0 240 -95.5t67 -289.5v-532q0 -100 64 -135q-16 -31 -53 -47.5t-78 -16.5q-80 0 -119 45t-39 127v531q0 50 -2.5 82.5t-11 68.5t-25 57t-45.5 34.5t-71 13.5q-45 0 -79.5 -16t-56.5 -46.5t-37 -66 t-22.5 -83.5t-10.5 -90.5t-3 -93.5v-532h-226z" />
<glyph unicode="i" horiz-adv-x="499" d="M94 1343q0 63 44 97.5t112 34.5t109.5 -33t41.5 -94q0 -63 -44 -97t-113 -34q-67 0 -108.5 32.5t-41.5 93.5zM131 141v903h225v-876q0 -100 64 -135q-16 -31 -53 -47.5t-78 -16.5q-80 0 -119 45t-39 127z" />
<glyph unicode="j" horiz-adv-x="505" d="M-59 -319q60 0 102 27.5t62.5 77.5t29 104t8.5 124v1030h228v-972q0 -482 -287 -482q-58 0 -100.5 22.5t-42.5 68.5zM102 1343q0 63 44 97.5t112 34.5t110 -33t42 -94q0 -63 -44.5 -97t-113.5 -34q-67 0 -108.5 32.5t-41.5 93.5z" />
<glyph unicode="k" horiz-adv-x="976" d="M143 0v1434l226 24v-1458h-226zM397 573l342 471h238l-352 -434l360 -610h-262z" />
<glyph unicode="l" horiz-adv-x="516" d="M139 141v1293l226 24v-1290q0 -100 63 -135q-16 -31 -53 -47.5t-78 -16.5q-80 0 -119 45t-39 127z" />
<glyph unicode="m" horiz-adv-x="1656" d="M135 0v1044l189 25l10 -184q39 98 119.5 149t189.5 51q121 0 188.5 -48t96.5 -142q79 190 291 190q173 0 240 -95.5t67 -289.5v-532q0 -100 63 -135q-16 -31 -53 -47.5t-78 -16.5q-78 0 -118 45.5t-40 126.5v531q0 50 -2.5 82.5t-11 68.5t-24.5 57t-45 34.5t-70 13.5 q-43 0 -76.5 -16.5t-54 -47.5t-34.5 -67t-20.5 -84.5t-9 -89.5t-2.5 -91v-532h-225v672q0 49 -2.5 82t-11.5 69t-25.5 57t-45.5 34.5t-71 13.5q-45 0 -79.5 -16t-56.5 -46.5t-37 -66t-22.5 -83.5t-10.5 -90.5t-3 -93.5v-532h-225z" />
<glyph unicode="n" horiz-adv-x="1081" d="M135 0v1044l189 25l10 -184q39 98 119.5 149t189.5 51q173 0 240 -95.5t67 -289.5v-532q0 -100 64 -135q-16 -31 -53 -47.5t-78 -16.5q-80 0 -119 45t-39 127v531q0 49 -2.5 82t-11.5 69t-25.5 57t-45.5 34.5t-71 13.5q-45 0 -79.5 -16t-56.5 -46.5t-37 -66t-22.5 -83.5 t-10.5 -90.5t-3 -93.5v-532h-225z" />
<glyph unicode="o" horiz-adv-x="1030" d="M66 516q0 122 26 223t79 179.5t141 122.5t204 44t203.5 -40.5t140.5 -115t79 -172.5t26 -220q0 -129 -24 -231.5t-75.5 -183t-140 -124t-209.5 -43.5t-209 41t-140 117.5t-76.5 176t-24.5 226.5zM311 526q0 -58 2 -101t8 -100t20 -96.5t35.5 -76t57 -55.5t82.5 -19 q46 0 81 19t56.5 55.5t35.5 76.5t20 96t8 99.5t2 101.5q0 437 -203 437q-205 0 -205 -437z" />
<glyph unicode="p" horiz-adv-x="1071" d="M143 -395v1439l189 25l10 -184q84 200 307 200q81 0 144 -30.5t102.5 -81.5t65 -123t35.5 -148.5t10 -164.5q0 -126 -26 -229t-80 -183.5t-143.5 -125t-209.5 -44.5q-96 0 -178 27v-353zM369 141q92 -63 190 -63q45 0 79.5 19.5t55.5 56t35 77t20.5 96.5t8.5 99.5t2 99.5 q0 46 -1 79.5t-5.5 78t-12 76.5t-21.5 65.5t-33.5 54.5t-49 34.5t-66.5 13.5q-56 0 -96.5 -24.5t-62.5 -68t-32.5 -94.5t-10.5 -112v-488z" />
<glyph unicode="q" horiz-adv-x="1073" d="M66 524q0 125 26 225.5t79.5 176.5t142.5 117.5t208 41.5q107 0 207 -38l201 22v-1438l-225 -24v207q0 164 22 280q-34 -67 -106.5 -103t-155.5 -36q-87 0 -156 31t-114 83t-74.5 126t-42 155t-12.5 174zM311 535q0 -62 4.5 -117.5t18.5 -117.5t36.5 -106t62.5 -73 t93 -29q90 0 134.5 68t44.5 172v565q-96 66 -191 66q-45 0 -80 -18t-56.5 -52t-35.5 -72.5t-20.5 -92t-8.5 -96t-2 -97.5z" />
<glyph unicode="r" horiz-adv-x="808" d="M135 0v1044l189 25l10 -184q30 92 101 146t165 54q103 0 163 -59t60 -162q0 -166 -159 -166q-53 0 -82 23q16 50 16 92q0 115 -96 115q-33 0 -58 -19t-40 -55t-24.5 -73.5t-13.5 -89t-5 -85t-1 -78.5v-528h-225z" />
<glyph unicode="s" horiz-adv-x="909" d="M82 176q0 70 43 106.5t117 36.5q56 0 84 -22q-17 -53 -17 -92q0 -67 41 -104.5t109 -37.5q76 0 115.5 40.5t39.5 117.5q0 52 -27.5 94.5t-71 73t-96.5 59.5t-106.5 61t-97 69.5t-71 94t-27.5 126.5t31.5 125.5t85 90t120.5 52.5t142 18q69 0 125 -11t104 -35.5t75 -69.5 t27 -107q0 -70 -42.5 -106.5t-116.5 -36.5q-56 0 -84 22q16 50 16 93q0 67 -33.5 105t-97.5 38q-62 0 -99.5 -32t-37.5 -91q0 -52 27.5 -94.5t71 -72.5t96.5 -58.5t106.5 -60.5t97 -69.5t71 -93.5t27.5 -126q0 -156 -111 -240t-284 -84q-69 0 -128 11t-111.5 34.5 t-82.5 68.5t-30 107z" />
<glyph unicode="t" horiz-adv-x="583" d="M8 1014q92 37 175 98t141 135h63v-203h188v-92h-192v-745q0 -61 22 -92.5t72 -38.5q-10 -48 -54 -77.5t-101 -29.5q-166 0 -166 189v794h-146z" />
<glyph unicode="u" horiz-adv-x="1089" d="M131 483v561h225v-550q0 -51 0.5 -81.5t4.5 -78t11 -77t20.5 -64.5t33 -54.5t49.5 -33t68 -13.5q89 0 133.5 68.5t44.5 171.5v712h225v-876q0 -100 64 -135q-34 -64 -121 -64q-59 0 -99 33.5t-47 91.5q-34 -67 -106.5 -103t-155.5 -36q-65 0 -116.5 13.5t-88 36.5t-63 61 t-42 79t-25 98.5t-12.5 112.5t-3 127z" />
<glyph unicode="v" horiz-adv-x="864" d="M0 1044h233l209 -907l209 907h213l-303 -1044h-278z" />
<glyph unicode="w" horiz-adv-x="1415" d="M0 1044h233l187 -907l186 907h223l187 -907l186 907h213l-280 -1044h-279l-162 735l-155 -735h-279z" />
<glyph unicode="x" horiz-adv-x="913" d="M10 0l342 518l-317 526h262l188 -339l172 339h238l-322 -493l332 -551h-262l-205 367l-190 -367h-238z" />
<glyph unicode="y" horiz-adv-x="866" d="M16 1044h234l194 -808l209 808h213l-465 -1439l-225 26l203 467h-103z" />
<glyph unicode="z" horiz-adv-x="778" d="M20 125l476 780l-457 -26l16 165h674l14 -120l-479 -787l494 17l-15 -154h-708z" />
<glyph unicode="{" horiz-adv-x="671" d="M63 573l5 115q147 0 147 236v446q0 148 52 208t198 60q78 0 166 -14v-92h-49q-41 0 -66.5 -14.5t-38.5 -46t-17.5 -69t-4.5 -95.5v-422q0 -226 -166 -248q33 -3 58.5 -12.5t42 -21t27.5 -33t17 -37.5t8.5 -46.5t3 -47t0.5 -50.5v-428q0 -49 3.5 -86t14.5 -81.5 t37.5 -69.5t67.5 -25h49l-6 -94q-105 -15 -159 -15q-65 0 -110 15.5t-70 39.5t-39 65.5t-17.5 80.5t-3.5 98v449q0 43 -2 71.5t-10.5 62.5t-24 54t-44 33.5t-69.5 13.5z" />
<glyph unicode="|" horiz-adv-x="520" d="M154 -410h213v2048h-213v-2048z" />
<glyph unicode="}" horiz-adv-x="778" d="M41 1532h49q41 0 66.5 -14.5t38.5 -46t17.5 -69t4.5 -95.5v-422q0 -226 166 -248q-26 -2 -47.5 -8.5t-37 -14t-27.5 -22t-19.5 -25t-13 -31.5t-8 -33t-4 -37.5t-1.5 -37v-39.5v-428q0 -49 -3.5 -86t-14.5 -81.5t-37.5 -69.5t-67.5 -25h-49l6 -94q105 -15 160 -15 q65 0 110 15.5t70 39.5t39 65.5t17.5 80.5t3.5 98v449q0 44 2 72t10 62t23.5 54t44 33.5t69.5 13.5l-4 115q-147 0 -147 236v446q0 148 -52 208t-198 60q-78 0 -166 -14v-92z" />
<glyph unicode="~" d="M164 479q0 -57 49 -106q12 20 51 34.5t82 14.5q49 0 205 -37t225 -37q75 0 120.5 29.5t45.5 79.5q0 58 -51 106q-12 -20 -51 -34.5t-82 -14.5q-49 0 -205 37t-225 37q-74 0 -119 -29.5t-45 -79.5z" />
<glyph unicode="&#xa1;" horiz-adv-x="501" d="M98 954q0 63 44 97t112 34t110 -33t42 -94q0 -63 -44.5 -97t-113.5 -34q-67 0 -108.5 33t-41.5 94zM117 -211q0 82 12 234l49 593q25 19 68 19q57 0 76 -31t22 -100l27 -809q-49 -43 -125 -43q-129 0 -129 137z" />
<glyph unicode="&#xa2;" d="M152 629q0 102 18.5 187.5t51 148t79.5 110.5t101 77.5t118 45.5v90q0 119 94 119q46 0 80 -18v-170q50 -1 98.5 -11.5t99.5 -34.5t82.5 -72.5t31.5 -115.5q0 -70 -43 -106.5t-119 -36.5q-54 0 -82 22q16 50 16 92q0 142 -125 142q-264 0 -264 -447q0 -67 5.5 -119 t23.5 -108t48 -93t83.5 -61t126.5 -24q91 0 155 48.5t87 135.5q34 -15 49.5 -37.5t15.5 -58.5q0 -56 -28.5 -103t-73 -76t-92.5 -46t-93 -21v-72q0 -116 -94 -116q-50 0 -80 18v182q-80 18 -144 55.5t-116.5 99t-81 157t-28.5 217.5z" />
<glyph unicode="&#xa3;" d="M106 752q0 69 87 69h63v211q0 161 98.5 240.5t270.5 79.5q65 0 115.5 -5t101.5 -20.5t84 -42t54 -71t21 -105.5q0 -73 -43 -119.5t-114 -46.5t-107 33q17 49 17 102q0 92 -31 138.5t-111 46.5q-35 0 -60 -13t-39 -33t-22.5 -52t-11 -62t-2.5 -70v-211h332q12 -24 12 -59 q0 -70 -86 -70h-258v-262q0 -180 -115 -256h584l-14 -174h-799l-14 129q78 28 107.5 82.5t29.5 148.5v332h-137q-13 26 -13 60z" />
<glyph unicode="&#xa4;" d="M47 1040l109 129l211 -192q81 49 186 49t186 -49l209 192l109 -129l-207 -178q43 -76 43 -182q0 -109 -43 -182l174 -170l-137 -127l-164 178q-75 -35 -172 -35q-98 0 -170 35l-162 -178l-137 127l172 170q-41 77 -41 182q0 101 43 182zM362 684q0 -89 49.5 -146 t141.5 -57q90 0 140 57t50 146q0 91 -51 149t-137 58q-88 0 -140.5 -58t-52.5 -149z" />
<glyph unicode="&#xa5;" d="M39 1352h262l266 -555l252 555h246l-385 -713h250q12 -24 12 -59q0 -70 -88 -70h-182v-145h258q12 -24 12 -60q0 -69 -88 -69h-182v-236h-240v236h-262q-12 24 -12 59q0 70 86 70h188v145h-262q-12 24 -12 59q0 70 86 70h166z" />
<glyph unicode="&#xa6;" horiz-adv-x="522" d="M154 0h213v557h-213v-557zM154 795h213v557h-213v-557z" />
<glyph unicode="&#xa7;" horiz-adv-x="1013" d="M98 518q0 101 59 176t171 144q-70 59 -109 125t-39 153q0 85 53 149t137.5 96t184.5 32q61 0 118.5 -12.5t107.5 -38t80 -70.5t30 -103q0 -69 -41.5 -104t-108.5 -35q-54 0 -86 23q11 49 11 82q0 70 -34 111.5t-106 41.5q-61 0 -98 -32t-37 -91q0 -50 29 -97t75 -85.5 t102 -77t112 -80.5t102 -86.5t75 -104t29 -126.5q0 -101 -61 -177.5t-170 -144.5q71 -56 110.5 -120t39.5 -150q0 -133 -109 -208t-270 -75q-62 0 -118.5 12t-105.5 37t-78.5 69.5t-29.5 103.5q0 71 41 106t108 35q54 0 86 -23q-10 -45 -10 -79q0 -73 38 -114.5t108 -41.5 q62 0 95.5 31.5t33.5 89.5q0 52 -29 100t-75.5 86.5t-102 76.5t-111.5 79t-102.5 85.5t-75.5 104t-29 127.5zM309 584q0 -53 18.5 -97.5t61.5 -85t74 -63.5t96 -65q19 -13 29 -19q39 29 61.5 52t39 58t16.5 78q0 23 -4.5 44.5t-11 39.5t-20 37.5t-23.5 33t-30.5 32t-33 29 t-38 29t-38.5 27t-41.5 27.5l-40.5 27q-57 -41 -86 -83t-29 -101z" />
<glyph unicode="&#xa8;" horiz-adv-x="755" d="M20 1343q0 63 44 97.5t112 34.5t110 -33t42 -94q0 -63 -44.5 -97t-113.5 -34q-67 0 -108.5 32.5t-41.5 93.5zM428 1343q0 63 44 97.5t112 34.5t109.5 -33t41.5 -94q0 -63 -44 -97t-113 -34q-67 0 -108.5 32.5t-41.5 93.5z" />
<glyph unicode="&#xa9;" horiz-adv-x="1636" d="M90 539q0 155 55 289.5t151.5 229t232 148.5t290.5 54t290.5 -54t232 -148.5t151.5 -229t55 -289.5q0 -157 -54 -288.5t-150.5 -222t-231 -140.5t-293.5 -50t-293.5 50t-231 140.5t-150.5 222t-54 288.5zM283 539q0 -267 139 -420.5t397 -153.5t397.5 153.5t139.5 420.5 q0 173 -61.5 306.5t-184.5 210.5t-291 77t-290.5 -77t-184 -210.5t-61.5 -306.5zM498 539q0 192 88 305.5t264 113.5q103 0 171.5 -43.5t68.5 -132.5q0 -50 -38 -77t-94 -27q-44 0 -71 16q12 30 12 66q0 48 -16 74t-56 26t-67.5 -30.5t-40 -81.5t-17 -96.5t-4.5 -96.5 q0 -57 6 -101t22 -86.5t49 -65.5t81 -23q62 0 106.5 30.5t61.5 87.5q26 -11 37.5 -25.5t11.5 -39.5q0 -82 -73 -129t-169 -47q-168 0 -250.5 101.5t-82.5 281.5z" />
<glyph unicode="&#xaa;" horiz-adv-x="890" d="M98 793q0 237 412 237v113q0 72 -18 107.5t-74 35.5q-96 0 -96 -96q0 -36 12 -70q-21 -16 -74 -16q-56 0 -91.5 27.5t-35.5 78.5q0 80 88.5 125t212.5 45q148 0 207 -62.5t59 -211.5v-377q0 -73 45 -96q-26 -53 -96 -53q-43 0 -71.5 25t-32.5 67q-55 -99 -205 -99 q-104 0 -173 60.5t-69 159.5zM121 393q0 38 21 60t59 22h549q14 -32 14 -61q0 -38 -21 -60t-59 -22h-549q-14 32 -14 61zM297 799q0 -49 27 -80t73 -31q57 0 85 42t28 106v100q-213 0 -213 -137z" />
<glyph unicode="&#xab;" horiz-adv-x="1009" d="M78 649l246 393h192l-166 -393l166 -391h-194zM483 649l250 393h199l-176 -393l166 -391h-195z" />
<glyph unicode="&#xac;" d="M72 479q0 48 25.5 75.5t72.5 27.5h780v-559q-52 -23 -82 -23q-55 0 -85.5 29t-30.5 82v297h-662q-18 41 -18 71z" />
<glyph unicode="&#xad;" horiz-adv-x="841" d="M98 475q0 50 30 73.5t87 26.5l506 17q22 -36 22 -82q0 -50 -30 -73.5t-88 -26.5l-504 -17q-23 33 -23 82z" />
<glyph unicode="&#xae;" horiz-adv-x="1636" d="M90 672q0 155 55 289.5t151.5 229t232 148.5t290.5 54t290.5 -54t232 -148.5t151.5 -229t55 -289.5q0 -157 -54 -288.5t-150.5 -222t-231 -140.5t-293.5 -50t-293.5 50t-231 140.5t-150.5 222t-54 288.5zM283 672q0 -267 139 -420.5t397 -153.5t397.5 153.5t139.5 420.5 q0 173 -61.5 306.5t-184.5 210.5t-291 77t-290.5 -77t-184 -210.5t-61.5 -306.5zM553 311v768q136 8 264 8q143 0 223 -48.5t80 -168.5q0 -80 -40.5 -135.5t-114.5 -75.5l184 -348h-201l-168 365q-6 9 -6 22q78 0 115 38t37 122q0 137 -131 137q-18 0 -58 -4v-680h-184z" />
<glyph unicode="&#xaf;" horiz-adv-x="604" d="M20 1327q0 44 28 69t77 25h442q17 -42 17 -78q0 -90 -119 -90h-430q-15 34 -15 74z" />
<glyph unicode="&#xb0;" horiz-adv-x="743" d="M29 1083q0 148 95 233t247 85q154 0 249 -85t95 -233q0 -145 -97.5 -235t-246.5 -90q-148 0 -245 90t-97 235zM219 1083q0 -92 37 -151.5t115 -59.5q79 0 116 59t37 152q0 89 -38 146t-115 57q-75 0 -113.5 -57.5t-38.5 -145.5z" />
<glyph unicode="&#xb1;" d="M180 571q0 48 26 75.5t73 27.5h178v174q0 53 29.5 79.5t82.5 26.5q45 0 78 -20v-260h258q19 -44 19 -72q0 -48 -26 -75t-73 -27h-178v-152q0 -53 -29.5 -79.5t-82.5 -26.5q-45 0 -78 20v238h-258q-19 44 -19 71zM215 94q0 96 92 96h561q15 -43 15 -65q0 -96 -95 -96h-559 q-14 40 -14 65z" />
<glyph unicode="&#xb2;" horiz-adv-x="737" d="M102 690q196 207 205 217q58 62 90.5 117.5t32.5 116.5q0 108 -102 108q-62 0 -105.5 -34.5t-62.5 -96.5q-47 13 -47 82q0 88 72 133t175 45q258 0 258 -229q0 -32 -4.5 -58t-20.5 -56.5t-31 -52.5t-53 -63.5t-67.5 -71t-93.5 -91.5q-6 -4 -22.5 -18t-26.5 -21h336 l-8 -133h-516z" />
<glyph unicode="&#xb3;" horiz-adv-x="743" d="M102 715q0 63 33 78q51 -105 184 -105q60 0 98 32t38 89q0 62 -39 91.5t-107 29.5q-38 0 -61 -4v96q78 0 126 34.5t48 104.5q0 42 -28 65t-75 23q-109 0 -149 -114q-45 15 -45 88q0 76 66.5 114.5t158.5 38.5q114 0 182 -44t68 -142q0 -66 -34.5 -117.5t-96.5 -77.5 q79 -16 125.5 -63t46.5 -123q0 -122 -91.5 -185t-230.5 -63q-92 0 -154.5 38t-62.5 116z" />
<glyph unicode="&#xb4;" horiz-adv-x="489" d="M20 1243l353 311q42 -11 69 -43t27 -73q0 -29 -15.5 -55t-44 -47t-54.5 -35t-60 -29l-223 -101z" />
<glyph unicode="&#xb5;" horiz-adv-x="1101" d="M143 -393v1437l226 25v-575q0 -51 0.5 -81t4 -78t10.5 -77t20.5 -64.5t33 -55t49.5 -33t68 -13.5q89 0 133.5 68.5t44.5 171.5v712h225v-876q0 -100 64 -135q-34 -64 -121 -64q-59 0 -98.5 33.5t-46.5 91.5q-34 -67 -106.5 -103t-155.5 -36q-69 0 -125 16v-340z" />
<glyph unicode="&#xb6;" horiz-adv-x="1380" d="M98 948q0 119 38 202.5t112 131.5t169 69t222 21t227 -20v-1280q0 -482 -358 -482q-101 0 -170.5 41.5t-69.5 106.5q0 44 31 61q65 -57 168 -57q45 0 78.5 14t53.5 37t32.5 59t17 74t4.5 88v529q-81 -23 -155 -23q-192 0 -296 115t-104 313zM1026 -31v1383h434 q0 -83 -33.5 -120.5t-113.5 -37.5q-53 0 -86 10v-1204z" />
<glyph unicode="&#xb7;" horiz-adv-x="493" d="M92 530q0 63 44 97.5t112 34.5t109.5 -33t41.5 -94q0 -64 -44 -98t-113 -34q-67 0 -108.5 33t-41.5 94z" />
<glyph unicode="&#xb8;" horiz-adv-x="503" d="M20 -403q0 33 21 51q52 -58 143 -58q58 0 95.5 21t37.5 67q0 95 -165 95q-46 0 -86 -6l96 256h96l-59 -156q18 2 57 2q104 0 165.5 -46t61.5 -138q0 -90 -79.5 -146.5t-188.5 -56.5q-47 0 -89 10t-74 37.5t-32 67.5z" />
<glyph unicode="&#xb9;" horiz-adv-x="686" d="M76 1255q72 21 163 60.5t150 77.5l62 -19v-680h149v-110h-491v110h159v508q-21 -20 -52 -32.5t-56 -12.5q-84 0 -84 98z" />
<glyph unicode="&#xba;" horiz-adv-x="890" d="M104 977q0 403 336 403q334 0 334 -391q0 -416 -334 -416q-336 0 -336 404zM121 393q0 38 21 60t59 22h549q14 -32 14 -61q0 -38 -21 -60t-59 -22h-549q-14 32 -14 61zM303 981q0 -38 0.5 -60.5t3 -58.5t7.5 -58.5t15.5 -49.5t24.5 -42t36 -25.5t50 -10.5q27 0 48 10.5 t34.5 26t23 43t14.5 50t7.5 58.5t3 58.5t0.5 58.5q0 38 -1.5 66.5t-5 66.5t-12.5 65t-23 52t-36.5 38t-52.5 13q-45 0 -74.5 -27.5t-42 -77.5t-16.5 -93.5t-4 -102.5z" />
<glyph unicode="&#xbb;" horiz-adv-x="1009" d="M78 1042h198l250 -393l-243 -391h-195l166 391zM494 258l165 391l-165 393h192l246 -393l-244 -391h-194z" />
<glyph unicode="&#xbc;" horiz-adv-x="1628" d="M37 1255q72 21 163 60.5t150 77.5l62 -19v-680h149v-110h-491v110h159v508q-21 -20 -52 -32.5t-56 -12.5q-84 0 -84 98zM514 -109q0 24 12 74l365 1505q30 5 51 5q102 0 102 -78q0 -24 -12 -74l-364 -1505q-24 -4 -52 -4q-102 0 -102 77zM956 225q0 23 23 64l301 506h203 v-512h106l-8 -111h-98v-172h-183v172h-299q-45 0 -45 53zM1106 283h194v342z" />
<glyph unicode="&#xbd;" horiz-adv-x="1628" d="M76 1255q72 21 163 60.5t150 77.5l62 -19v-680h149v-110h-491v110h159v508q-21 -20 -52 -32.5t-56 -12.5q-84 0 -84 98zM553 -109q0 24 12 74l365 1505q30 5 51 5q102 0 102 -78q0 -24 -12 -74l-364 -1505q-24 -4 -52 -4q-102 0 -102 77zM1032 106q164 173 205 218 q58 63 90.5 117.5t32.5 115.5q0 109 -103 109q-62 0 -105 -34.5t-62 -96.5q-48 14 -48 81q0 88 72.5 133.5t175.5 45.5q124 0 191 -56.5t67 -173.5q0 -32 -4.5 -58t-20.5 -56.5t-31 -52.5t-53 -63.5t-67.5 -71t-93.5 -91.5q-6 -4 -22.5 -18t-26.5 -21h336l-9 -133h-516z" />
<glyph unicode="&#xbe;" horiz-adv-x="1628" d="M63 715q0 63 33 78q51 -105 185 -105q60 0 97.5 32t37.5 89q0 62 -39 91.5t-107 29.5q-38 0 -61 -4v96q78 0 126 34.5t48 104.5q0 42 -27.5 65t-74.5 23q-110 0 -150 -114q-45 15 -45 88q0 76 66.5 114.5t158.5 38.5q114 0 182 -44t68 -142q0 -66 -34.5 -117.5 t-96.5 -77.5q79 -16 125.5 -63t46.5 -123q0 -122 -91 -185t-230 -63q-92 0 -155 38t-63 116zM514 -109q0 24 12 74l365 1505q30 5 51 5q102 0 102 -78q0 -24 -12 -74l-364 -1505q-24 -4 -52 -4q-102 0 -102 77zM956 225q0 23 23 64l301 506h203v-512h106l-8 -111h-98v-172 h-183v172h-299q-45 0 -45 53zM1106 283h194v342z" />
<glyph unicode="&#xbf;" horiz-adv-x="847" d="M4 -59q0 65 22.5 125t58 107.5t78.5 92.5t86 86t78.5 81t58 86t22.5 93q19 19 75 19q97 0 97 -99q0 -46 -34 -100.5t-82.5 -108.5t-97 -112t-82.5 -129t-34 -141q0 -74 40.5 -119t121.5 -45q71 0 114 35t43 106q0 37 -18 100q36 23 90 23q78 0 124 -39.5t46 -114.5 q0 -55 -26.5 -98t-67.5 -68t-97 -40.5t-107.5 -21t-106.5 -5.5q-85 0 -155 15t-127 47.5t-88.5 89.5t-31.5 135zM330 954q0 63 43.5 97t111.5 34t110 -33t42 -94q0 -63 -44.5 -97t-113.5 -34q-67 0 -108 33t-41 94z" />
<glyph unicode="&#xc0;" horiz-adv-x="1030" d="M0 0l375 1352h305l350 -1352h-242l-81 344h-402l-80 -344h-225zM184 1610q0 63 58 104l436 -172l-23 -86l-245 19q-38 3 -66 6.5t-60 13t-52.5 23t-34 37.5t-13.5 55zM342 496h330l-166 702z" />
<glyph unicode="&#xc1;" horiz-adv-x="1030" d="M0 0l375 1352h305l350 -1352h-242l-81 344h-402l-80 -344h-225zM342 496h330l-166 702zM358 1542l435 172q59 -42 59 -104q0 -39 -19 -65.5t-55 -40t-70 -19.5t-83 -10l-244 -19z" />
<glyph unicode="&#xc2;" horiz-adv-x="1030" d="M0 0l375 1352h305l350 -1352h-242l-81 344h-402l-80 -344h-225zM219 1442l297 270h8l305 -270l-61 -72l-246 150l-243 -150zM342 496h330l-166 702z" />
<glyph unicode="&#xc3;" horiz-adv-x="1030" d="M0 0l375 1352h305l350 -1352h-242l-81 344h-402l-80 -344h-225zM209 1597q0 50 34.5 75.5t90.5 25.5q47 0 169.5 -24.5t162.5 -24.5q76 0 108 30q55 -36 55 -104q0 -50 -34 -75t-90 -25q-46 0 -169 24.5t-163 24.5q-76 0 -109 -31q-55 36 -55 104zM342 496h330l-166 702z " />
<glyph unicode="&#xc4;" horiz-adv-x="1030" d="M0 0l375 1352h305l350 -1352h-242l-81 344h-402l-80 -344h-225zM162 1581q0 63 43.5 97t111.5 34t110 -33t42 -94q0 -63 -44.5 -97t-113.5 -34q-67 0 -108 33t-41 94zM342 496h330l-166 702zM569 1581q0 63 44 97t112 34t110 -33t42 -94q0 -63 -44.5 -97t-113.5 -34 q-67 0 -108.5 33t-41.5 94z" />
<glyph unicode="&#xc5;" horiz-adv-x="1030" d="M0 0l375 1352h305l350 -1352h-242l-81 344h-402l-80 -344h-225zM313 1610q0 77 58 121.5t147 44.5q91 0 149 -44.5t58 -121.5q0 -78 -59 -125t-148 -47q-87 0 -146 47t-59 125zM342 496h330l-166 702zM432 1610q0 -45 22 -74t64 -29q44 0 66 28.5t22 74.5q0 42 -23 69 t-65 27q-41 0 -63.5 -27t-22.5 -69z" />
<glyph unicode="&#xc6;" horiz-adv-x="1382" d="M-92 0l616 1352h768v-152h-415v-430h354v-152h-354v-466h444l-14 -152h-670v344h-361l-143 -344h-225zM340 496h297v704z" />
<glyph unicode="&#xc7;" horiz-adv-x="1048" d="M70 670q0 123 16.5 228t56 197.5t99.5 157.5t151.5 102.5t208.5 37.5q86 0 155.5 -16t124.5 -50t85 -93.5t30 -139.5q0 -73 -43 -119.5t-114 -46.5t-107 33q17 49 17 102q0 186 -166 186q-49 0 -88.5 -20t-65.5 -51t-45.5 -79t-30 -95t-17 -108.5t-8 -109t-1.5 -106.5 q0 -61 2 -109.5t9 -106.5t18.5 -101.5t32.5 -87t49 -71t70 -44.5t95 -17q107 0 182.5 59.5t108.5 164.5q80 -24 80 -121q0 -92 -58 -160t-144.5 -99.5t-186.5 -31.5l-33 -88q18 2 57 2q104 0 166 -46t62 -138q0 -90 -80 -146.5t-189 -56.5q-47 0 -89 10t-73.5 37.5 t-31.5 67.5q0 34 20 51q52 -58 144 -58q58 0 95.5 21t37.5 67q0 95 -166 95q-45 0 -86 -6l74 194q-424 59 -424 709z" />
<glyph unicode="&#xc8;" horiz-adv-x="897" d="M123 0v1352h686v-152h-447v-430h386v-152h-386v-466h476l-15 -152h-700zM135 1610q0 63 58 104l436 -172l-23 -86l-246 19q-49 4 -82.5 10t-69.5 19.5t-54.5 40t-18.5 65.5z" />
<glyph unicode="&#xc9;" horiz-adv-x="897" d="M123 0v1352h686v-152h-447v-430h386v-152h-386v-466h476l-15 -152h-700zM309 1542l434 172q60 -43 60 -104q0 -39 -19 -65.5t-55.5 -40t-70.5 -19.5t-83 -10l-243 -19z" />
<glyph unicode="&#xca;" horiz-adv-x="897" d="M123 0v1352h686v-152h-447v-430h386v-152h-386v-466h476l-15 -152h-700zM164 1442l297 270h8l305 -270l-61 -72l-246 150l-244 -150z" />
<glyph unicode="&#xcb;" horiz-adv-x="897" d="M109 1581q0 63 43.5 97t111.5 34t110 -33t42 -94q0 -63 -44.5 -97t-113.5 -34q-67 0 -108 33t-41 94zM123 0v1352h686v-152h-447v-430h386v-152h-386v-466h476l-15 -152h-700zM516 1581q0 63 44 97t112 34t109.5 -33t41.5 -94q0 -63 -44 -97t-113 -34q-67 0 -108.5 33 t-41.5 94z" />
<glyph unicode="&#xcc;" horiz-adv-x="485" d="M-92 1610q0 63 57 104l436 -172l-22 -86l-246 19q-49 4 -82.5 10t-69.5 19.5t-54.5 40t-18.5 65.5zM123 0v1352h239v-1352h-239z" />
<glyph unicode="&#xcd;" horiz-adv-x="485" d="M82 1542l434 172q59 -42 59 -104q0 -39 -19 -65.5t-55 -40t-70 -19.5t-83 -10l-244 -19zM123 0v1352h239v-1352h-239z" />
<glyph unicode="&#xce;" horiz-adv-x="485" d="M-59 1442l297 270h8l305 -270l-62 -72l-245 150l-244 -150zM123 0v1352h239v-1352h-239z" />
<glyph unicode="&#xcf;" horiz-adv-x="485" d="M-115 1581q0 63 44 97t112 34t110 -33t42 -94q0 -63 -44.5 -97t-113.5 -34q-67 0 -108.5 33t-41.5 94zM123 0v1352h239v-1352h-239zM293 1581q0 63 44 97t112 34t109.5 -33t41.5 -94q0 -63 -44.5 -97t-113.5 -34q-67 0 -108 33t-41 94z" />
<glyph unicode="&#xd0;" horiz-adv-x="1175" d="M-29 684q0 88 109 88h63v571q257 17 426 17q537 0 537 -651q0 -729 -586 -729q-172 0 -377 30v598h-155q-17 28 -17 76zM383 135q73 -12 137 -12t114 15.5t85 41t60.5 67t40 85.5t23 105t11 115.5t2.5 127.5q0 85 -6.5 155.5t-26 144t-51.5 123.5t-87.5 82t-129.5 32 q-67 0 -172 -11v-434h272q17 -28 17 -76q0 -88 -109 -88h-180v-473z" />
<glyph unicode="&#xd1;" horiz-adv-x="1163" d="M123 0v1352h182l543 -926v926h192v-1352h-180l-545 926v-926h-192zM272 1597q0 50 34.5 75.5t90.5 25.5q47 0 169.5 -24.5t162.5 -24.5q77 0 109 30q55 -36 55 -104q0 -50 -34.5 -75t-90.5 -25q-46 0 -169 24.5t-163 24.5q-75 0 -108 -31q-56 37 -56 104z" />
<glyph unicode="&#xd2;" horiz-adv-x="1189" d="M70 670q0 123 16.5 227.5t55 197.5t97.5 158t150 102.5t207 37.5q524 0 524 -699q0 -739 -524 -739q-118 0 -209 35.5t-150.5 98t-97.5 154t-53.5 196t-15.5 231.5zM258 1610q0 63 57 104l437 -172l-23 -86l-246 19q-49 4 -82.5 10t-69.5 19.5t-54.5 40t-18.5 65.5z M328 680q0 -63 1.5 -112t8 -112t17 -110.5t30.5 -96.5t47.5 -80t68.5 -51t93 -20t93.5 20t69 51t47.5 80t31 96.5t17.5 111t8 112t1.5 111.5q0 70 -3.5 127.5t-12 127t-27.5 122t-47.5 98t-74 70t-103.5 24.5q-50 0 -90.5 -19.5t-67.5 -50.5t-47.5 -78t-31.5 -95t-18 -108 t-9 -109.5t-2 -108.5z" />
<glyph unicode="&#xd3;" horiz-adv-x="1189" d="M70 670q0 123 16.5 227.5t55 197.5t97.5 158t150 102.5t207 37.5q524 0 524 -699q0 -739 -524 -739q-118 0 -209 35.5t-150.5 98t-97.5 154t-53.5 196t-15.5 231.5zM328 680q0 -63 1.5 -112t8 -112t17 -110.5t30.5 -96.5t47.5 -80t68.5 -51t93 -20t93.5 20t69 51t47.5 80 t31 96.5t17.5 111t8 112t1.5 111.5q0 70 -3.5 127.5t-12 127t-27.5 122t-47.5 98t-74 70t-103.5 24.5q-50 0 -90.5 -19.5t-67.5 -50.5t-47.5 -78t-31.5 -95t-18 -108t-9 -109.5t-2 -108.5zM434 1542l434 172q60 -43 60 -104q0 -39 -19 -65.5t-55.5 -40t-70.5 -19.5t-83 -10 l-243 -19z" />
<glyph unicode="&#xd4;" horiz-adv-x="1189" d="M70 670q0 123 16.5 227.5t55 197.5t97.5 158t150 102.5t207 37.5q524 0 524 -699q0 -739 -524 -739q-118 0 -209 35.5t-150.5 98t-97.5 154t-53.5 196t-15.5 231.5zM293 1442l297 270h8l305 -270l-61 -72l-246 150l-244 -150zM328 680q0 -63 1.5 -112t8 -112t17 -110.5 t30.5 -96.5t47.5 -80t68.5 -51t93 -20t93.5 20t69 51t47.5 80t31 96.5t17.5 111t8 112t1.5 111.5q0 70 -3.5 127.5t-12 127t-27.5 122t-47.5 98t-74 70t-103.5 24.5q-50 0 -90.5 -19.5t-67.5 -50.5t-47.5 -78t-31.5 -95t-18 -108t-9 -109.5t-2 -108.5z" />
<glyph unicode="&#xd5;" horiz-adv-x="1189" d="M70 670q0 123 16.5 227.5t55 197.5t97.5 158t150 102.5t207 37.5q524 0 524 -699q0 -739 -524 -739q-118 0 -209 35.5t-150.5 98t-97.5 154t-53.5 196t-15.5 231.5zM285 1597q0 50 34.5 75.5t90.5 25.5q47 0 169 -24.5t162 -24.5q77 0 109 30q55 -36 55 -104 q0 -50 -34.5 -75t-90.5 -25q-46 0 -168.5 24.5t-162.5 24.5q-76 0 -109 -31q-55 36 -55 104zM328 680q0 -63 1.5 -112t8 -112t17 -110.5t30.5 -96.5t47.5 -80t68.5 -51t93 -20t93.5 20t69 51t47.5 80t31 96.5t17.5 111t8 112t1.5 111.5q0 70 -3.5 127.5t-12 127t-27.5 122 t-47.5 98t-74 70t-103.5 24.5q-50 0 -90.5 -19.5t-67.5 -50.5t-47.5 -78t-31.5 -95t-18 -108t-9 -109.5t-2 -108.5z" />
<glyph unicode="&#xd6;" horiz-adv-x="1189" d="M70 670q0 123 16.5 227.5t55 197.5t97.5 158t150 102.5t207 37.5q524 0 524 -699q0 -739 -524 -739q-118 0 -209 35.5t-150.5 98t-97.5 154t-53.5 196t-15.5 231.5zM238 1581q0 63 43.5 97t111.5 34t110 -33t42 -94q0 -63 -44.5 -97t-113.5 -34q-67 0 -108 33t-41 94z M328 680q0 -63 1.5 -112t8 -112t17 -110.5t30.5 -96.5t47.5 -80t68.5 -51t93 -20t93.5 20t69 51t47.5 80t31 96.5t17.5 111t8 112t1.5 111.5q0 70 -3.5 127.5t-12 127t-27.5 122t-47.5 98t-74 70t-103.5 24.5q-50 0 -90.5 -19.5t-67.5 -50.5t-47.5 -78t-31.5 -95t-18 -108 t-9 -109.5t-2 -108.5zM645 1581q0 63 44 97t112 34t109.5 -33t41.5 -94q0 -63 -44 -97t-113 -34q-67 0 -108.5 33t-41.5 94z" />
<glyph unicode="&#xd7;" d="M111 147l321 361l-201 197q-61 61 -61 114q0 49 34.5 74t88.5 25l258 -275l186 209q54 61 107 61q51 0 81.5 -28.5t30.5 -79.5l-274 -297l252 -250q61 -61 61 -115q0 -49 -34.5 -73.5t-88.5 -24.5l-309 328l-233 -273q-54 -61 -107 -61q-51 0 -81.5 28.5t-30.5 79.5z" />
<glyph unicode="&#xd8;" horiz-adv-x="1189" d="M29 -23q0 29 30 72l103 144q-92 174 -92 477q0 123 16.5 227.5t55 197.5t97.5 158t150 102.5t207 37.5q214 0 340 -117l131 184q31 -5 71 -28.5t40 -57.5q0 -27 -31 -71l-113 -158q86 -171 86 -451q0 -739 -524 -739q-211 0 -334 108l-123 -172q-31 5 -70.5 28.5 t-39.5 57.5zM328 680q0 -140 10 -240l467 654q-66 155 -211 155q-50 0 -90.5 -19.5t-67.5 -50.5t-47.5 -78t-31.5 -95t-18 -108t-9 -109.5t-2 -108.5zM389 242q65 -144 205 -144q52 0 93.5 20t69 51t47.5 80t31 96.5t17.5 111t8 112t1.5 111.5q0 121 -10 211z" />
<glyph unicode="&#xd9;" horiz-adv-x="1120" d="M113 494v858h239v-836q0 -55 1 -91.5t6 -84.5t14 -79.5t26 -65t40.5 -53t58.5 -32t80 -12.5t80 14t58.5 35t39.5 57.5t25 69t13.5 83.5t5.5 88t1 94v813h207v-791q0 -122 -10.5 -210t-39 -167t-77.5 -126.5t-128.5 -75t-189.5 -27.5q-133 0 -221 33t-138.5 103.5 t-70.5 166t-20 236.5zM240 1610q0 63 57 104l436 -172l-22 -86l-246 19q-49 4 -82.5 10t-69.5 19.5t-54.5 40t-18.5 65.5z" />
<glyph unicode="&#xda;" horiz-adv-x="1120" d="M113 494v858h239v-836q0 -55 1 -91.5t6 -84.5t14 -79.5t26 -65t40.5 -53t58.5 -32t80 -12.5t80 14t58.5 35t39.5 57.5t25 69t13.5 83.5t5.5 88t1 94v813h207v-791q0 -122 -10.5 -210t-39 -167t-77.5 -126.5t-128.5 -75t-189.5 -27.5q-133 0 -221 33t-138.5 103.5 t-70.5 166t-20 236.5zM420 1542l434 172q59 -42 59 -104q0 -39 -19 -65.5t-55 -40t-70 -19.5t-83 -10l-244 -19z" />
<glyph unicode="&#xdb;" horiz-adv-x="1120" d="M113 494v858h239v-836q0 -55 1 -91.5t6 -84.5t14 -79.5t26 -65t40.5 -53t58.5 -32t80 -12.5t80 14t58.5 35t39.5 57.5t25 69t13.5 83.5t5.5 88t1 94v813h207v-791q0 -122 -10.5 -210t-39 -167t-77.5 -126.5t-128.5 -75t-189.5 -27.5q-133 0 -221 33t-138.5 103.5 t-70.5 166t-20 236.5zM274 1442l297 270h9l305 -270l-62 -72l-245 150l-244 -150z" />
<glyph unicode="&#xdc;" horiz-adv-x="1120" d="M113 494v858h239v-836q0 -55 1 -91.5t6 -84.5t14 -79.5t26 -65t40.5 -53t58.5 -32t80 -12.5t80 14t58.5 35t39.5 57.5t25 69t13.5 83.5t5.5 88t1 94v813h207v-791q0 -122 -10.5 -210t-39 -167t-77.5 -126.5t-128.5 -75t-189.5 -27.5q-133 0 -221 33t-138.5 103.5 t-70.5 166t-20 236.5zM219 1581q0 63 44 97t112 34t109.5 -33t41.5 -94q0 -63 -44 -97t-113 -34q-67 0 -108.5 33t-41.5 94zM627 1581q0 63 43.5 97t111.5 34t110 -33t42 -94q0 -63 -44.5 -97t-113.5 -34q-67 0 -108 33t-41 94z" />
<glyph unicode="&#xdd;" horiz-adv-x="1032" d="M2 1352h262l266 -555l252 555h246l-393 -727v-625h-240v600zM373 1542l434 172q59 -42 59 -104q0 -39 -19 -65.5t-55 -40t-70 -19.5t-83 -10l-244 -19z" />
<glyph unicode="&#xde;" horiz-adv-x="1013" d="M123 0v1352h239v-254q98 4 146 4q113 0 199 -20.5t152 -64.5t100 -120.5t34 -183.5q0 -178 -104.5 -288t-280.5 -110q-67 0 -115.5 22.5t-48.5 72.5q155 0 229.5 71t74.5 224q0 129 -62.5 191t-191.5 62q-64 0 -132 -10v-948h-239z" />
<glyph unicode="&#xdf;" horiz-adv-x="1228" d="M-59 -197q49 0 85.5 19t58.5 49.5t35.5 75.5t18 90t4.5 100v987q0 187 113 269t322 82q74 0 140 -11t127 -35t97.5 -71t36.5 -111q0 -47 -27.5 -92t-67 -81t-79 -70.5t-67 -73t-27.5 -76.5q0 -52 27.5 -94.5t71 -72.5t96.5 -58.5t106.5 -60.5t97 -69.5t71 -93.5 t27.5 -126q0 -156 -111 -240t-284 -84q-69 0 -128 11t-111.5 34.5t-82.5 68.5t-30 107q0 70 43 106.5t117 36.5q57 0 84 -22q-17 -53 -17 -92q0 -67 41 -104.5t109 -37.5q76 0 115.5 40.5t39.5 117.5q0 52 -27.5 94.5t-71 73t-96.5 59.5t-106.5 61t-97 69.5t-71 94 t-27.5 126.5q0 47 27.5 92t67 81t79 70.5t67 73t27.5 76.5q0 90 -53.5 141t-145.5 51q-113 0 -154.5 -64.5t-41.5 -195.5v-929q0 -482 -285 -482q-58 0 -100.5 22t-42.5 68z" />
<glyph unicode="&#xe0;" horiz-adv-x="1024" d="M76 264q0 332 592 332v178q0 102 -30.5 152.5t-115.5 50.5q-73 0 -119.5 -38t-46.5 -105q0 -40 17 -93q-27 -22 -84 -22q-74 0 -117 36.5t-43 106.5q0 98 111 160.5t297 62.5q199 0 277.5 -89t78.5 -296v-532q0 -100 63 -135q-34 -64 -120 -64q-59 0 -98 33.5t-48 91.5 q-75 -139 -282 -139q-142 0 -237 86t-95 223zM242 1438q0 41 27 73t69 43l352 -311l-51 -72l-225 101q-34 15 -59 29t-53.5 35t-44 47t-15.5 55zM322 272q0 -81 44.5 -130.5t122.5 -49.5q90 0 135.5 68.5t45.5 171.5v162q-348 0 -348 -222z" />
<glyph unicode="&#xe1;" horiz-adv-x="1024" d="M76 264q0 332 592 332v178q0 102 -30.5 152.5t-115.5 50.5q-73 0 -119.5 -38t-46.5 -105q0 -40 17 -93q-27 -22 -84 -22q-74 0 -117 36.5t-43 106.5q0 98 111 160.5t297 62.5q199 0 277.5 -89t78.5 -296v-532q0 -100 63 -135q-34 -64 -120 -64q-59 0 -98 33.5t-48 91.5 q-75 -139 -282 -139q-142 0 -237 86t-95 223zM322 272q0 -81 44.5 -130.5t122.5 -49.5q90 0 135.5 68.5t45.5 171.5v162q-348 0 -348 -222zM352 1243l353 311q42 -11 69 -43t27 -73q0 -29 -15.5 -55t-44 -47t-54.5 -35t-60 -29l-224 -101z" />
<glyph unicode="&#xe2;" horiz-adv-x="1024" d="M76 264q0 332 592 332v178q0 102 -30.5 152.5t-115.5 50.5q-73 0 -119.5 -38t-46.5 -105q0 -40 17 -93q-27 -22 -84 -22q-74 0 -117 36.5t-43 106.5q0 98 111 160.5t297 62.5q199 0 277.5 -89t78.5 -296v-532q0 -100 63 -135q-34 -64 -120 -64q-59 0 -98 33.5t-48 91.5 q-75 -139 -282 -139q-142 0 -237 86t-95 223zM217 1249l297 271h8l305 -271l-61 -71l-246 149l-244 -149zM322 272q0 -81 44.5 -130.5t122.5 -49.5q90 0 135.5 68.5t45.5 171.5v162q-348 0 -348 -222z" />
<glyph unicode="&#xe3;" horiz-adv-x="1024" d="M76 264q0 332 592 332v178q0 102 -30.5 152.5t-115.5 50.5q-73 0 -119.5 -38t-46.5 -105q0 -40 17 -93q-27 -22 -84 -22q-74 0 -117 36.5t-43 106.5q0 98 111 160.5t297 62.5q199 0 277.5 -89t78.5 -296v-532q0 -100 63 -135q-34 -64 -120 -64q-59 0 -98 33.5t-48 91.5 q-75 -139 -282 -139q-142 0 -237 86t-95 223zM209 1346q0 50 34.5 75t90.5 25q47 0 169.5 -24.5t162.5 -24.5q76 0 108 30q55 -36 55 -104q0 -50 -34 -75t-90 -25q-46 0 -169 24.5t-163 24.5q-76 0 -109 -31q-55 36 -55 105zM322 272q0 -81 44.5 -130.5t122.5 -49.5 q90 0 135.5 68.5t45.5 171.5v162q-348 0 -348 -222z" />
<glyph unicode="&#xe4;" horiz-adv-x="1024" d="M76 264q0 332 592 332v178q0 102 -30.5 152.5t-115.5 50.5q-73 0 -119.5 -38t-46.5 -105q0 -40 17 -93q-27 -22 -84 -22q-74 0 -117 36.5t-43 106.5q0 98 111 160.5t297 62.5q199 0 277.5 -89t78.5 -296v-532q0 -100 63 -135q-34 -64 -120 -64q-59 0 -98 33.5t-48 91.5 q-75 -139 -282 -139q-142 0 -237 86t-95 223zM164 1343q0 63 43.5 97.5t111.5 34.5t110 -33t42 -94q0 -63 -44.5 -97t-113.5 -34q-67 0 -108 32.5t-41 93.5zM322 272q0 -81 44.5 -130.5t122.5 -49.5q90 0 135.5 68.5t45.5 171.5v162q-348 0 -348 -222zM571 1343 q0 63 44 97.5t112 34.5t110 -33t42 -94q0 -63 -44.5 -97t-113.5 -34q-67 0 -108.5 32.5t-41.5 93.5z" />
<glyph unicode="&#xe5;" horiz-adv-x="1024" d="M76 264q0 332 592 332v178q0 102 -30.5 152.5t-115.5 50.5q-73 0 -119.5 -38t-46.5 -105q0 -40 17 -93q-27 -22 -84 -22q-74 0 -117 36.5t-43 106.5q0 98 111 160.5t297 62.5q199 0 277.5 -89t78.5 -296v-532q0 -100 63 -135q-34 -64 -120 -64q-59 0 -98 33.5t-48 91.5 q-75 -139 -282 -139q-142 0 -237 86t-95 223zM299 1352q0 91 62 141.5t159 50.5t159 -50.5t62 -141.5q0 -90 -63 -144.5t-158 -54.5t-158 54.5t-63 144.5zM322 272q0 -81 44.5 -130.5t122.5 -49.5q90 0 135.5 68.5t45.5 171.5v162q-348 0 -348 -222zM418 1352 q0 -58 25.5 -93.5t76.5 -35.5t77 36t26 93q0 55 -26 89t-77 34q-50 0 -76 -34t-26 -89z" />
<glyph unicode="&#xe6;" horiz-adv-x="1527" d="M76 264q0 68 24 121t68.5 87.5t98.5 58t124.5 35.5t135 17t141.5 5v186q0 102 -30.5 152.5t-115.5 50.5q-73 0 -119.5 -38t-46.5 -105q0 -40 17 -93q-27 -22 -84 -22q-74 0 -117 36.5t-43 106.5q0 98 111 160.5t297 62.5q109 0 179 -25.5t111 -80.5q115 106 303 106 q152 0 245 -78.5t93 -222.5q0 -62 -16 -111t-47.5 -83t-72 -57.5t-94 -37t-109.5 -19t-123 -5.5q-59 0 -113 4q2 -61 8.5 -110t22 -98t39.5 -81.5t63.5 -52.5t91.5 -20q90 0 158.5 46t107.5 130q50 -23 50 -88q0 -74 -52 -132t-127.5 -86t-156.5 -28q-243 0 -355 180 q-36 -91 -113 -135.5t-181 -44.5q-163 0 -268 80t-105 229zM322 272q0 -81 44.5 -130.5t122.5 -49.5q90 0 135.5 68.5t45.5 171.5v153q-58 0 -105 -5t-94 -19t-78.5 -37t-51 -61.5t-19.5 -90.5zM893 578q88 -5 90 -5q126 0 192 45t66 154q0 84 -35.5 140.5t-107.5 56.5 q-58 0 -100 -36t-63 -98t-30.5 -124t-11.5 -133z" />
<glyph unicode="&#xe7;" horiz-adv-x="913" d="M66 496q0 127 28 232.5t84 186t148.5 125.5t214.5 45q138 0 227.5 -57.5t89.5 -175.5q0 -70 -43 -106.5t-117 -36.5q-56 0 -84 22q17 53 17 92q0 142 -123 142q-205 0 -205 -447q0 -66 4.5 -118.5t18.5 -108.5t37.5 -93t65.5 -61t99 -24q91 0 155 48.5t87 135.5 q66 -29 66 -96q0 -74 -50 -132t-124 -86t-154 -28h-19l-32 -88q18 2 57 2q104 0 165.5 -46t61.5 -138q0 -90 -79.5 -146.5t-188.5 -56.5q-47 0 -89 10t-73.5 37.5t-31.5 67.5q0 34 20 51q52 -58 143 -58q58 0 95.5 21t37.5 67q0 95 -165 95q-46 0 -86 -6l75 198 q-115 24 -191 99.5t-109 183.5t-33 248z" />
<glyph unicode="&#xe8;" horiz-adv-x="937" d="M66 496q0 127 28 232.5t84 186t148.5 125.5t214.5 45q152 0 244 -78.5t92 -222.5q0 -92 -35.5 -156.5t-101 -99.5t-144 -50t-180.5 -15q-59 0 -113 4q2 -59 8.5 -106.5t22 -95.5t39.5 -80t63.5 -52t91.5 -20q90 0 159 46t108 130q47 -21 47 -88q0 -74 -51.5 -132 t-126.5 -86t-156 -28q-114 0 -200.5 40.5t-138.5 114t-77.5 170.5t-25.5 216zM225 1438q0 41 27.5 73t69.5 43l352 -311l-51 -72l-226 101q-34 15 -59 29t-53.5 35t-44 47t-15.5 55zM303 571q50 -6 92 -6q258 0 258 207q0 84 -36.5 140.5t-108.5 56.5q-58 0 -100 -36 t-63 -98.5t-30.5 -125.5t-11.5 -138z" />
<glyph unicode="&#xe9;" horiz-adv-x="937" d="M66 496q0 127 28 232.5t84 186t148.5 125.5t214.5 45q152 0 244 -78.5t92 -222.5q0 -92 -35.5 -156.5t-101 -99.5t-144 -50t-180.5 -15q-59 0 -113 4q2 -59 8.5 -106.5t22 -95.5t39.5 -80t63.5 -52t91.5 -20q90 0 159 46t108 130q47 -21 47 -88q0 -74 -51.5 -132 t-126.5 -86t-156 -28q-114 0 -200.5 40.5t-138.5 114t-77.5 170.5t-25.5 216zM303 571q50 -6 92 -6q258 0 258 207q0 84 -36.5 140.5t-108.5 56.5q-58 0 -100 -36t-63 -98.5t-30.5 -125.5t-11.5 -138zM336 1243l352 311q42 -11 69 -43t27 -73q0 -29 -15.5 -55t-44 -47 t-54.5 -35t-60 -29l-223 -101z" />
<glyph unicode="&#xea;" horiz-adv-x="937" d="M66 496q0 127 28 232.5t84 186t148.5 125.5t214.5 45q152 0 244 -78.5t92 -222.5q0 -92 -35.5 -156.5t-101 -99.5t-144 -50t-180.5 -15q-59 0 -113 4q2 -59 8.5 -106.5t22 -95.5t39.5 -80t63.5 -52t91.5 -20q90 0 159 46t108 130q47 -21 47 -88q0 -74 -51.5 -132 t-126.5 -86t-156 -28q-114 0 -200.5 40.5t-138.5 114t-77.5 170.5t-25.5 216zM201 1249l297 271h8l305 -271l-61 -71l-246 149l-244 -149zM303 571q50 -6 92 -6q258 0 258 207q0 84 -36.5 140.5t-108.5 56.5q-58 0 -100 -36t-63 -98.5t-30.5 -125.5t-11.5 -138z" />
<glyph unicode="&#xeb;" horiz-adv-x="937" d="M66 496q0 127 28 232.5t84 186t148.5 125.5t214.5 45q152 0 244 -78.5t92 -222.5q0 -92 -35.5 -156.5t-101 -99.5t-144 -50t-180.5 -15q-59 0 -113 4q2 -59 8.5 -106.5t22 -95.5t39.5 -80t63.5 -52t91.5 -20q90 0 159 46t108 130q47 -21 47 -88q0 -74 -51.5 -132 t-126.5 -86t-156 -28q-114 0 -200.5 40.5t-138.5 114t-77.5 170.5t-25.5 216zM147 1343q0 63 44 97.5t112 34.5t110 -33t42 -94q0 -63 -44.5 -97t-113.5 -34q-67 0 -108.5 32.5t-41.5 93.5zM303 571q50 -6 92 -6q258 0 258 207q0 84 -36.5 140.5t-108.5 56.5q-58 0 -100 -36 t-63 -98.5t-30.5 -125.5t-11.5 -138zM555 1343q0 63 44 97.5t112 34.5t109.5 -33t41.5 -94q0 -63 -44 -97t-113 -34q-67 0 -108.5 32.5t-41.5 93.5z" />
<glyph unicode="&#xec;" horiz-adv-x="499" d="M-35 1438q0 41 27 73t69 43l353 -311l-52 -72l-225 101q-34 15 -59 29t-53.5 35t-44 47t-15.5 55zM131 141v903h225v-876q0 -100 64 -135q-16 -31 -53 -47.5t-78 -16.5q-80 0 -119 45t-39 127z" />
<glyph unicode="&#xed;" horiz-adv-x="499" d="M76 1243l352 311q42 -11 69 -43t27 -73q0 -29 -15.5 -55t-44 -47t-54.5 -35t-60 -29l-223 -101zM131 141v903h225v-876q0 -100 64 -135q-16 -31 -53 -47.5t-78 -16.5q-80 0 -119 45t-39 127z" />
<glyph unicode="&#xee;" horiz-adv-x="499" d="M-59 1249l297 271h8l305 -271l-62 -71l-245 149l-244 -149zM131 141v903h225v-876q0 -100 64 -135q-16 -31 -53 -47.5t-78 -16.5q-80 0 -119 45t-39 127z" />
<glyph unicode="&#xef;" horiz-adv-x="499" d="M-113 1343q0 63 44 97.5t112 34.5t110 -33t42 -94q0 -63 -44.5 -97t-113.5 -34q-67 0 -108.5 32.5t-41.5 93.5zM131 141v903h225v-876q0 -100 64 -135q-16 -31 -53 -47.5t-78 -16.5q-80 0 -119 45t-39 127zM295 1343q0 63 44 97.5t112 34.5t109.5 -33t41.5 -94 q0 -63 -44.5 -97t-113.5 -34q-67 0 -108 32.5t-41 93.5z" />
<glyph unicode="&#xf0;" horiz-adv-x="1089" d="M66 465q0 160 49.5 280.5t155.5 192.5t257 72q90 0 172 -27q-10 99 -32 166l-191 -70q-12 12 -23.5 34t-11.5 40q-3 42 60 64l104 38q-65 72 -168 72q-64 0 -110 -31q-23 26 -23 66q0 54 49 83.5t129 29.5q194 0 318 -150l178 64q13 -12 25 -33.5t12 -40.5q0 -41 -72 -66 l-76 -28q119 -224 119 -576q0 -93 -9.5 -175t-30 -161t-56.5 -141t-85.5 -110t-120 -73.5t-157.5 -25.5q-218 0 -340 139.5t-122 366.5zM324 479q0 -54 5 -105t19 -106t36 -94.5t59 -65.5t85 -26q201 0 201 534q0 117 -10 209q-89 62 -191 62q-40 0 -72.5 -16t-53.5 -40 t-36 -61.5t-23 -71t-12.5 -78t-5.5 -74.5t-1 -67z" />
<glyph unicode="&#xf1;" horiz-adv-x="1081" d="M135 0v1044l189 25l10 -184q39 98 119.5 149t189.5 51q173 0 240 -95.5t67 -289.5v-532q0 -100 64 -135q-16 -31 -53 -47.5t-78 -16.5q-80 0 -119 45t-39 127v531q0 49 -2.5 82t-11.5 69t-25.5 57t-45.5 34.5t-71 13.5q-45 0 -79.5 -16t-56.5 -46.5t-37 -66t-22.5 -83.5 t-10.5 -90.5t-3 -93.5v-532h-225zM270 1346q0 50 34.5 75t90.5 25q47 0 169.5 -24.5t162.5 -24.5q77 0 109 30q55 -36 55 -104q0 -50 -34.5 -75t-90.5 -25q-46 0 -169 24.5t-163 24.5q-75 0 -108 -31q-56 37 -56 105z" />
<glyph unicode="&#xf2;" horiz-adv-x="1030" d="M66 516q0 122 26 223t79 179.5t141 122.5t204 44t203.5 -40.5t140.5 -115t79 -172.5t26 -220q0 -129 -24 -231.5t-75.5 -183t-140 -124t-209.5 -43.5t-209 41t-140 117.5t-76.5 176t-24.5 226.5zM236 1438q0 41 27 73t69 43l352 -311l-51 -72l-225 101q-34 15 -59 29 t-53.5 35t-44 47t-15.5 55zM311 526q0 -58 2 -101t8 -100t20 -96.5t35.5 -76t57 -55.5t82.5 -19q46 0 81 19t56.5 55.5t35.5 76.5t20 96t8 99.5t2 101.5q0 437 -203 437q-205 0 -205 -437z" />
<glyph unicode="&#xf3;" horiz-adv-x="1030" d="M66 516q0 122 26 223t79 179.5t141 122.5t204 44t203.5 -40.5t140.5 -115t79 -172.5t26 -220q0 -129 -24 -231.5t-75.5 -183t-140 -124t-209.5 -43.5t-209 41t-140 117.5t-76.5 176t-24.5 226.5zM311 526q0 -58 2 -101t8 -100t20 -96.5t35.5 -76t57 -55.5t82.5 -19 q46 0 81 19t56.5 55.5t35.5 76.5t20 96t8 99.5t2 101.5q0 437 -203 437q-205 0 -205 -437zM346 1243l352 311q42 -11 69.5 -43t27.5 -73q0 -29 -15.5 -55t-44 -47t-54.5 -35t-60 -29l-224 -101z" />
<glyph unicode="&#xf4;" horiz-adv-x="1030" d="M66 516q0 122 26 223t79 179.5t141 122.5t204 44t203.5 -40.5t140.5 -115t79 -172.5t26 -220q0 -129 -24 -231.5t-75.5 -183t-140 -124t-209.5 -43.5t-209 41t-140 117.5t-76.5 176t-24.5 226.5zM211 1249l297 271h8l305 -271l-61 -71l-246 149l-244 -149zM311 526 q0 -58 2 -101t8 -100t20 -96.5t35.5 -76t57 -55.5t82.5 -19q46 0 81 19t56.5 55.5t35.5 76.5t20 96t8 99.5t2 101.5q0 437 -203 437q-205 0 -205 -437z" />
<glyph unicode="&#xf5;" horiz-adv-x="1030" d="M66 516q0 122 26 223t79 179.5t141 122.5t204 44t203.5 -40.5t140.5 -115t79 -172.5t26 -220q0 -129 -24 -231.5t-75.5 -183t-140 -124t-209.5 -43.5t-209 41t-140 117.5t-76.5 176t-24.5 226.5zM205 1346q0 50 34.5 75t90.5 25q47 0 169.5 -24.5t162.5 -24.5 q76 0 108 30q55 -36 55 -104q0 -50 -34.5 -75t-90.5 -25q-46 0 -168.5 24.5t-162.5 24.5q-76 0 -109 -31q-55 36 -55 105zM311 526q0 -58 2 -101t8 -100t20 -96.5t35.5 -76t57 -55.5t82.5 -19q46 0 81 19t56.5 55.5t35.5 76.5t20 96t8 99.5t2 101.5q0 437 -203 437 q-205 0 -205 -437z" />
<glyph unicode="&#xf6;" horiz-adv-x="1030" d="M66 516q0 122 26 223t79 179.5t141 122.5t204 44t203.5 -40.5t140.5 -115t79 -172.5t26 -220q0 -129 -24 -231.5t-75.5 -183t-140 -124t-209.5 -43.5t-209 41t-140 117.5t-76.5 176t-24.5 226.5zM158 1343q0 63 43.5 97.5t111.5 34.5t110 -33t42 -94q0 -63 -44.5 -97 t-113.5 -34q-67 0 -108 32.5t-41 93.5zM311 526q0 -58 2 -101t8 -100t20 -96.5t35.5 -76t57 -55.5t82.5 -19q46 0 81 19t56.5 55.5t35.5 76.5t20 96t8 99.5t2 101.5q0 437 -203 437q-205 0 -205 -437zM565 1343q0 63 44 97.5t112 34.5t109.5 -33t41.5 -94q0 -63 -44 -97 t-113 -34q-67 0 -108.5 32.5t-41.5 93.5z" />
<glyph unicode="&#xf7;" d="M129 477q0 48 25.5 75.5t72.5 27.5h729q19 -44 19 -72q0 -48 -25.5 -75t-72.5 -27h-730q-18 41 -18 71zM424 172q0 52 39 82.5t98 30.5q58 0 92.5 -29t34.5 -80q0 -52 -37 -80t-96 -28t-95 27t-36 77zM424 805q0 52 39 82.5t98 30.5q58 0 92.5 -29t34.5 -80 q0 -52 -37 -80.5t-96 -28.5t-95 27.5t-36 77.5z" />
<glyph unicode="&#xf8;" horiz-adv-x="1030" d="M49 -23q0 28 31 72l67 94q-81 136 -81 373q0 122 26 223t79 179.5t141 122.5t204 44q153 0 254 -69l133 186q31 -5 71 -28.5t40 -57.5q0 -28 -31 -72l-102 -145q84 -139 84 -362q0 -129 -24 -231.5t-75.5 -183t-140 -124t-209.5 -43.5q-159 0 -260 72l-96 -136 q-31 5 -71 28.5t-40 57.5zM311 526q0 -96 4 -147l349 487q-53 97 -148 97q-205 0 -205 -437zM362 176q51 -98 154 -98q46 0 81 19t56.5 55.5t35.5 76.5t20 96t8 99.5t2 101.5q0 70 -6 140z" />
<glyph unicode="&#xf9;" horiz-adv-x="1089" d="M131 483v561h225v-550q0 -51 0.5 -81.5t4.5 -78t11 -77t20.5 -64.5t33 -54.5t49.5 -33t68 -13.5q89 0 133.5 68.5t44.5 171.5v712h225v-876q0 -100 64 -135q-34 -64 -121 -64q-59 0 -99 33.5t-47 91.5q-34 -67 -106.5 -103t-155.5 -36q-65 0 -116.5 13.5t-88 36.5t-63 61 t-42 79t-25 98.5t-12.5 112.5t-3 127zM262 1438q0 41 27 73t69 43l353 -311l-52 -72l-225 101q-34 15 -59 29t-53.5 35t-44 47t-15.5 55z" />
<glyph unicode="&#xfa;" horiz-adv-x="1089" d="M131 483v561h225v-550q0 -51 0.5 -81.5t4.5 -78t11 -77t20.5 -64.5t33 -54.5t49.5 -33t68 -13.5q89 0 133.5 68.5t44.5 171.5v712h225v-876q0 -100 64 -135q-34 -64 -121 -64q-59 0 -99 33.5t-47 91.5q-34 -67 -106.5 -103t-155.5 -36q-65 0 -116.5 13.5t-88 36.5t-63 61 t-42 79t-25 98.5t-12.5 112.5t-3 127zM373 1243l352 311q42 -11 69 -43t27 -73q0 -29 -15.5 -55t-44 -47t-54.5 -35t-60 -29l-223 -101z" />
<glyph unicode="&#xfb;" horiz-adv-x="1089" d="M131 483v561h225v-550q0 -51 0.5 -81.5t4.5 -78t11 -77t20.5 -64.5t33 -54.5t49.5 -33t68 -13.5q89 0 133.5 68.5t44.5 171.5v712h225v-876q0 -100 64 -135q-34 -64 -121 -64q-59 0 -99 33.5t-47 91.5q-34 -67 -106.5 -103t-155.5 -36q-65 0 -116.5 13.5t-88 36.5t-63 61 t-42 79t-25 98.5t-12.5 112.5t-3 127zM238 1249l297 271h8l305 -271l-62 -71l-245 149l-244 -149z" />
<glyph unicode="&#xfc;" horiz-adv-x="1089" d="M131 483v561h225v-550q0 -51 0.5 -81.5t4.5 -78t11 -77t20.5 -64.5t33 -54.5t49.5 -33t68 -13.5q89 0 133.5 68.5t44.5 171.5v712h225v-876q0 -100 64 -135q-34 -64 -121 -64q-59 0 -99 33.5t-47 91.5q-34 -67 -106.5 -103t-155.5 -36q-65 0 -116.5 13.5t-88 36.5t-63 61 t-42 79t-25 98.5t-12.5 112.5t-3 127zM184 1343q0 63 44 97.5t112 34.5t110 -33t42 -94q0 -63 -44.5 -97t-113.5 -34q-67 0 -108.5 32.5t-41.5 93.5zM592 1343q0 63 44 97.5t112 34.5t109.5 -33t41.5 -94q0 -63 -44.5 -97t-113.5 -34q-67 0 -108 32.5t-41 93.5z" />
<glyph unicode="&#xfd;" horiz-adv-x="866" d="M16 1044h234l194 -808l209 808h213l-465 -1439l-225 26l203 467h-103zM279 1243l352 311q42 -11 69 -43t27 -73q0 -29 -15.5 -55t-44 -47t-54.5 -35t-60 -29l-223 -101z" />
<glyph unicode="&#xfe;" horiz-adv-x="1071" d="M143 -395v1829l226 24v-231q0 -217 -21 -328q85 186 301 186q81 0 144 -30.5t102.5 -81.5t65 -123t35.5 -148.5t10 -164.5q0 -126 -26 -229t-80 -183.5t-143.5 -125t-209.5 -44.5q-96 0 -178 27v-353zM369 141q92 -63 190 -63q45 0 79.5 19.5t55.5 56t35 77t20.5 96.5 t8.5 99.5t2 99.5q0 46 -1 79.5t-5.5 78t-12 76.5t-21.5 65.5t-33.5 54.5t-49 34.5t-66.5 13.5q-56 0 -96.5 -24.5t-62.5 -68t-32.5 -94.5t-10.5 -112v-488z" />
<glyph unicode="&#xff;" horiz-adv-x="866" d="M16 1044h234l194 -808l209 808h213l-465 -1439l-225 26l203 467h-103zM88 1343q0 63 44 97.5t112 34.5t109.5 -33t41.5 -94q0 -63 -44 -97t-113 -34q-67 0 -108.5 32.5t-41.5 93.5zM496 1343q0 63 43.5 97.5t111.5 34.5t110 -33t42 -94q0 -63 -44.5 -97t-113.5 -34 q-67 0 -108 32.5t-41 93.5z" />
<glyph unicode="&#x152;" horiz-adv-x="1552" d="M70 670q0 123 16.5 227.5t55 197.5t97.5 158t150 102.5t207 37.5q127 0 223 -41h641v-152h-403v-430h342v-152h-342v-466h432l-14 -152h-652q-98 -45 -227 -45q-118 0 -209 35.5t-150.5 98t-97.5 154t-53.5 196t-15.5 231.5zM328 680q0 -63 1.5 -112t8 -112t17 -110.5 t30.5 -96.5t47.5 -80t68.5 -51t93 -20q123 0 223 103v944q-101 104 -223 104q-50 0 -90.5 -19.5t-67.5 -50.5t-47.5 -78t-31.5 -95t-18 -108t-9 -109.5t-2 -108.5z" />
<glyph unicode="&#x153;" horiz-adv-x="1591" d="M66 516q0 122 26 223t79 179.5t141 122.5t204 44q217 0 336 -145q126 145 342 145q152 0 244 -78.5t92 -222.5q0 -92 -35.5 -156.5t-101 -99.5t-144 -50t-180.5 -15q-59 0 -113 4q2 -75 13 -132.5t34.5 -110.5t68.5 -82t110 -29q90 0 158.5 46t107.5 130q47 -21 47 -88 q0 -74 -51.5 -132t-126.5 -86t-156 -28q-207 0 -321 133q-114 -133 -324 -133q-121 0 -209 41t-140 117.5t-76.5 176t-24.5 226.5zM311 526q0 -58 2 -101t8 -100t20 -96.5t35.5 -76t57 -55.5t82.5 -19q43 0 77 17t55.5 50t35.5 70.5t21.5 89t10 94.5t3.5 97v30 q0 437 -203 437q-205 0 -205 -437zM956 571q50 -6 93 -6q258 0 258 207q0 83 -37 140t-109 57q-58 0 -100 -36t-63 -98.5t-30.5 -125.5t-11.5 -138z" />
<glyph unicode="&#x178;" horiz-adv-x="1032" d="M2 1352h262l266 -555l252 555h246l-393 -727v-625h-240v600zM172 1581q0 63 44 97t112 34t109.5 -33t41.5 -94q0 -63 -44 -97t-113 -34q-67 0 -108.5 33t-41.5 94zM580 1581q0 63 43.5 97t111.5 34t110 -33t42 -94q0 -63 -44.5 -97t-113.5 -34q-67 0 -108 33t-41 94z" />
<glyph unicode="&#x2c6;" horiz-adv-x="651" d="M20 1249l297 271h9l305 -271l-62 -71l-245 149l-244 -149z" />
<glyph unicode="&#x2dc;" horiz-adv-x="663" d="M20 1346q0 50 34.5 75t90.5 25q47 0 169.5 -24.5t162.5 -24.5q77 0 109 30q55 -36 55 -104q0 -50 -34.5 -75t-90.5 -25q-46 0 -169 24.5t-163 24.5q-75 0 -108 -31q-56 37 -56 105z" />
<glyph unicode="&#x2000;" horiz-adv-x="888" />
<glyph unicode="&#x2001;" horiz-adv-x="1776" />
<glyph unicode="&#x2002;" horiz-adv-x="888" />
<glyph unicode="&#x2003;" horiz-adv-x="1776" />
<glyph unicode="&#x2004;" horiz-adv-x="592" />
<glyph unicode="&#x2005;" horiz-adv-x="444" />
<glyph unicode="&#x2006;" horiz-adv-x="296" />
<glyph unicode="&#x2007;" horiz-adv-x="296" />
<glyph unicode="&#x2008;" horiz-adv-x="222" />
<glyph unicode="&#x2009;" horiz-adv-x="355" />
<glyph unicode="&#x200a;" horiz-adv-x="98" />
<glyph unicode="&#x2010;" horiz-adv-x="841" d="M98 475q0 50 30 73.5t87 26.5l506 17q22 -36 22 -82q0 -50 -30 -73.5t-88 -26.5l-504 -17q-23 33 -23 82z" />
<glyph unicode="&#x2011;" horiz-adv-x="841" d="M98 475q0 50 30 73.5t87 26.5l506 17q22 -36 22 -82q0 -50 -30 -73.5t-88 -26.5l-504 -17q-23 33 -23 82z" />
<glyph unicode="&#x2012;" horiz-adv-x="841" d="M98 475q0 50 30 73.5t87 26.5l506 17q22 -36 22 -82q0 -50 -30 -73.5t-88 -26.5l-504 -17q-23 33 -23 82z" />
<glyph unicode="&#x2013;" horiz-adv-x="905" d="M14 485q0 97 119 97h739q19 -36 19 -82q0 -97 -121 -97h-737q-19 31 -19 82z" />
<glyph unicode="&#x2014;" horiz-adv-x="1777" d="M14 485q0 97 119 97h1612q18 -34 18 -82q0 -97 -123 -97h-1607q-19 31 -19 82z" />
<glyph unicode="&#x2018;" horiz-adv-x="477" d="M88 1182q0 102 69 187t165 85q42 0 77 -14q-75 -112 -75 -250q0 -84 43 -158q-48 -26 -117 -26q-80 0 -121 46t-41 130z" />
<glyph unicode="&#x2019;" horiz-adv-x="475" d="M80 1020q76 113 76 250q0 83 -43 157q50 27 114 27q82 0 123 -46t41 -130q0 -102 -69 -187t-164 -85q-43 0 -78 14z" />
<glyph unicode="&#x201a;" horiz-adv-x="475" d="M80 -233q76 113 76 249q0 84 -43 158q49 27 114 27q82 0 123 -46t41 -130q0 -102 -69 -187.5t-164 -85.5q-40 0 -78 15z" />
<glyph unicode="&#x201c;" horiz-adv-x="864" d="M86 1182q0 102 68.5 187t164.5 85q43 0 78 -14q-75 -112 -75 -250q0 -84 43 -158q-48 -26 -117 -26q-80 0 -121 46t-41 130zM473 1182q0 102 69 187t165 85q42 0 77 -14q-75 -112 -75 -250q0 -84 43 -158q-48 -26 -117 -26q-80 0 -121 46t-41 130z" />
<glyph unicode="&#x201d;" horiz-adv-x="864" d="M80 1020q76 113 76 250q0 83 -43 157q50 27 114 27q82 0 123 -46t41 -130q0 -102 -69 -187t-164 -85q-43 0 -78 14zM467 1020q76 113 76 250q0 83 -43 157q50 27 114 27q82 0 123 -46t41 -130q0 -102 -69 -187t-164 -85q-43 0 -78 14z" />
<glyph unicode="&#x201e;" horiz-adv-x="864" d="M80 -233q76 113 76 249q0 84 -43 158q49 27 114 27q82 0 123 -46t41 -130q0 -102 -69 -187.5t-164 -85.5q-40 0 -78 15zM467 -233q76 113 76 249q0 84 -43 158q50 27 114 27q82 0 123 -46t41 -130q0 -102 -69 -187.5t-164 -85.5q-41 0 -78 15z" />
<glyph unicode="&#x2022;" horiz-adv-x="518" d="M23 526q0 80 55.5 123t142.5 43q86 0 138.5 -42.5t52.5 -119.5q0 -80 -55.5 -122.5t-143.5 -42.5q-86 0 -138 42t-52 119z" />
<glyph unicode="&#x2026;" horiz-adv-x="1374" d="M92 86q0 63 44 97t112 34t109.5 -33t41.5 -94q0 -63 -44 -97t-113 -34q-67 0 -108.5 33t-41.5 94zM553 86q0 63 44 97t112 34t109.5 -33t41.5 -94q0 -63 -44.5 -97t-113.5 -34q-67 0 -108 33t-41 94zM999 86q0 63 44 97t112 34t110 -33t42 -94q0 -63 -44.5 -97 t-113.5 -34q-67 0 -108.5 33t-41.5 94z" />
<glyph unicode="&#x202f;" horiz-adv-x="355" />
<glyph unicode="&#x2039;" horiz-adv-x="593" d="M78 649l246 393h192l-166 -393l166 -391h-194z" />
<glyph unicode="&#x203a;" horiz-adv-x="593" d="M78 258l166 391l-166 393h192l246 -393l-244 -391h-194z" />
<glyph unicode="&#x205f;" horiz-adv-x="444" />
<glyph unicode="&#x20ac;" d="M-4 498q0 69 86 69h68q-3 34 -3 66q0 39 3 80h-142q-12 24 -12 59q0 70 86 70h84q14 80 38.5 150t67.5 138t99 115.5t138.5 77t182.5 29.5q81 0 148.5 -13.5t122 -41.5t85.5 -78t31 -117q0 -73 -43.5 -119.5t-115.5 -46.5q-69 0 -107 33q16 46 16 102q0 73 -38.5 105 t-116.5 32q-235 0 -264 -366h436q12 -24 12 -60q0 -69 -86 -69h-369v-68q0 -37 3 -78h440q12 -24 12 -59q0 -70 -86 -70h-354q52 -295 282 -295q114 0 182 52t109 172q80 -24 80 -121q0 -92 -58.5 -160t-145.5 -99.5t-187 -31.5q-446 0 -520 483h-152q-12 24 -12 60z" />
<glyph unicode="&#x2122;" horiz-adv-x="1474" d="M14 1241v111h531l-8 -111h-172v-633h-175v633h-176zM553 608l72 744h225l117 -525l116 525h224l71 -744h-168l-49 588l-139 -588h-150l-135 590l-49 -590h-135z" />
<glyph unicode="&#x25fc;" horiz-adv-x="1044" d="M0 0v1044h1044v-1044h-1044z" />
</font>
</defs>
</svg>
